<svg width="551" height="253" viewBox="0 0 551 253" fill="none" xmlns="http://www.w3.org/2000/svg">
<g opacity="0.3">
<path d="M-0.463867 77.4663L114.432 -4.47144" stroke="#292554" stroke-width="2"/>
<path d="M169.362 -11.7961L93.833 48.6272L198.201 -9.50738L169.362 -11.7961Z" fill="#292554"/>
<path d="M-4.58398 166.728L205.982 14.2959L-4.58398 174.967V166.728Z" fill="#292554"/>
<path d="M224.75 -15L202.32 6.05662L268.237 -11.7957L224.75 -15Z" fill="#292554"/>
<path d="M253.13 -12.7113L-0.00683594 193.735L287.462 26.1977L253.13 72.8884C306.077 45.4233 412.886 -10.1479 416.548 -12.7113C420.21 -15.2747 309.129 -13.7794 253.13 -12.7113Z" fill="#292554"/>
<path d="M515.88 87.5367L338.272 196.482L381.301 103.558L508.556 -10.8801" stroke="#292554" stroke-width="4"/>
<path d="M-5.5 231.729L249.926 95.3184L66.8249 308.173" stroke="#292554" stroke-width="4"/>
<path d="M164.326 284.37L133.656 312.751L190.875 315.955L338.272 169.017L211.474 267.891L164.326 284.37Z" fill="#292554"/>
<path d="M552.248 219L452 285.832H552.248V219Z" fill="#292554"/>
</g>
</svg>
