<svg width="132" height="40" viewBox="0 0 132 40" fill="none" xmlns="http://www.w3.org/2000/svg">
<mask id="path-1-inside-1_10_14042" fill="white">
<path d="M132 28.2695L122.075 40H0V11.1064L9.39844 0H132V28.2695Z"/>
</mask>
<path d="M132 28.2695L133.145 29.2384L133.5 28.819V28.2695H132ZM122.075 40V41.5H122.771L123.22 40.9689L122.075 40ZM0 40H-1.5V41.5H0V40ZM0 11.1064L-1.14505 10.1375L-1.5 10.557V11.1064H0ZM9.39844 0V-1.5H8.70277L8.25339 -0.968954L9.39844 0ZM132 0H133.5V-1.5H132V0ZM132 28.2695L130.855 27.3007L120.93 39.0311L122.075 40L123.22 40.9689L133.145 29.2384L132 28.2695ZM122.075 40V38.5H0V40V41.5H122.075V40ZM0 40H1.5V11.1064H0H-1.5V40H0ZM0 11.1064L1.14505 12.0754L10.5435 0.968954L9.39844 0L8.25339 -0.968954L-1.14505 10.1375L0 11.1064ZM9.39844 0V1.5H132V0V-1.5H9.39844V0ZM132 0H130.5V28.2695H132H133.5V0H132Z" fill="white" mask="url(#path-1-inside-1_10_14042)"/>
</svg>
