<svg width="21" height="22" viewBox="0 0 21 22" fill="none" xmlns="http://www.w3.org/2000/svg">
<path d="M3.4314 18.1619L2.00744 18.8522L2.38902 19.2962L3.4314 18.1619ZM3.04209 17.6355L1.65904 18.3812L2.00744 18.8522L3.04209 17.6355ZM2.68986 17.0788L1.34382 17.883L1.65904 18.3812L2.68986 17.0788ZM2.3747 16.4919L1.06179 17.3578L1.34382 17.883L2.3747 16.4919ZM2.09662 15.8747L0.812929 16.8054L1.06179 17.3578L2.09662 15.8747ZM1.85562 15.2273L0.597255 16.226L0.812929 16.8054L1.85562 15.2273ZM1.65169 14.5495L0.414759 15.6195L0.597255 16.226L1.65169 14.5495ZM1.48484 13.8416L0.265446 14.986L0.414759 15.6195L1.48484 13.8416ZM1.35507 13.1033L0.149313 14.3253L0.265446 14.986L1.35507 13.1033ZM1.26238 12.3348L0.0663613 13.6376L0.149313 14.3253L1.26238 12.3348ZM1.20676 11.5361L0.0165906 12.9227L0.0663613 13.6376L1.20676 11.5361ZM1.18823 10.707L0 12.1808L0.0165906 12.9227L1.18823 10.707ZM1.20666 9.88972L0.0165007 11.4494L0 12.1808L1.20666 9.88972ZM1.26198 9.10208L0.0660029 10.7446L0.0165007 11.4494L1.26198 9.10208ZM1.35417 8.3441L0.148506 10.0662L0.0660029 10.7446L1.35417 8.3441ZM13.2265 17.6227L10.7732 18.3697L10.5089 18.4516L13.2265 17.6227ZM13.5108 17.5145L11.0276 18.2729L10.7732 18.3697L13.5108 17.5145ZM13.7841 17.3898L11.2721 18.1613L11.0276 18.2729L13.7841 17.3898ZM14.0463 17.2484L11.5068 18.0347L11.2721 18.1613L14.0463 17.2484ZM14.2976 17.0903L11.7317 17.8933L11.5068 18.0347L14.2976 17.0903ZM14.5378 16.9157L11.9466 17.737L11.7317 17.8933L14.5378 16.9157ZM14.7669 16.7244L12.1517 17.5658L11.9466 17.737L14.7669 16.7244ZM14.9841 16.5197L12.346 17.3826L12.1517 17.5658L14.9841 16.5197ZM15.1834 16.3047L12.5244 17.1902L12.346 17.3826L15.1834 16.3047ZM15.3649 16.0795L12.6868 16.9887L12.5244 17.1902L15.3649 16.0795ZM15.5285 15.8441L12.8333 16.7781L12.6868 16.9887L15.5285 15.8441ZM15.6743 15.5985L12.9637 16.5583L12.8333 16.7781L15.6743 15.5985ZM15.8023 15.3427L13.0783 16.3293L12.9637 16.5583L15.8023 15.3427ZM15.9124 15.0766L13.1768 16.0912L13.0783 16.3293L15.9124 15.0766ZM16.0047 14.8004L13.2594 15.844L13.1768 16.0912L16.0047 14.8004ZM16.0792 14.5139L13.326 15.5876L13.2594 15.844L16.0792 14.5139ZM16.1358 14.2171L13.3767 15.3221L13.326 15.5876L16.1358 14.2171ZM16.1746 13.9102L13.4114 15.0474L13.3767 15.3221L16.1746 13.9102ZM16.1955 13.593L13.4302 14.7636L13.4114 15.0474L16.1955 13.593ZM16.21 13.2612L13.4431 14.4665L13.4302 14.7636L16.21 13.2612ZM11.6789 13.2612L9.38819 14.4665H13.4431L11.6789 13.2612ZM11.6789 10.0865L9.38819 11.6256V14.4665L11.6789 10.0865ZM12.6121 21.4767L10.2233 21.8187L10.8119 21.7434L12.6121 21.4767ZM11.9278 21.5272L9.61095 21.8639L10.2233 21.8187L11.9278 21.5272ZM11.2171 21.544L8.97496 21.879L9.61095 21.8639L11.2171 21.544ZM10.4517 21.524L8.29 21.861L8.97496 21.879L10.4517 21.524ZM9.71401 21.4639L7.62979 21.8072L8.29 21.861L9.71401 21.4639ZM9.00392 21.3637L6.99433 21.7175L7.62979 21.8072L9.00392 21.3637ZM8.3215 21.2234L6.38363 21.592L6.99433 21.7175L8.3215 21.2234ZM7.66674 21.043L5.79767 21.4306L6.38363 21.592L7.66674 21.043ZM7.03963 20.8225L5.23647 21.2333L5.79767 21.4306L7.03963 20.8225ZM6.44018 20.562L4.70002 21.0001L5.23647 21.2333L6.44018 20.562ZM5.86839 20.2614L4.18831 20.7311L4.70002 21.0001L5.86839 20.2614ZM5.32425 19.9206L3.70136 20.4262L4.18831 20.7311L5.32425 19.9206ZM4.80777 19.5398L3.23916 20.0854L3.70136 20.4262L4.80777 19.5398ZM4.31895 19.119L2.80171 19.7088L3.23916 20.0854L4.31895 19.119ZM3.85779 18.658L2.38902 19.2962L2.80171 19.7088L3.85779 18.658ZM1.48324 7.61578L0.264012 9.41446L0.148506 10.0662L1.48324 7.61578ZM1.64919 6.91712L0.412518 8.78922L0.264012 9.41446L1.64919 6.91712ZM1.85201 6.24813L0.594026 8.19053L0.412518 8.78922L1.85201 6.24813ZM2.09171 5.6088L0.808535 7.61839L0.594026 8.19053L2.09171 5.6088ZM2.36829 4.99912L1.05605 7.07279L0.808535 7.61839L2.36829 4.99912ZM2.68174 4.41911L1.33656 6.55373L1.05605 7.07279L2.68174 4.41911ZM15.8925 7.08507L13.159 8.93952H17.0718L15.8925 7.08507ZM15.8076 6.81822L13.083 8.70071L13.159 8.93952L15.8076 6.81822ZM15.7117 6.56118L12.9972 8.47069L13.083 8.70071L15.7117 6.56118ZM15.6048 6.31397L12.9015 8.24945L12.9972 8.47069L15.6048 6.31397ZM15.4868 6.07657L12.796 8.037L12.9015 8.24945L15.4868 6.07657ZM15.3579 5.849L12.6805 7.83335L12.796 8.037L15.3579 5.849ZM15.2179 5.63124L12.5553 7.63848L12.6805 7.83335L15.2179 5.63124ZM15.0669 5.42331L12.4201 7.45239L12.5553 7.63848L15.0669 5.42331ZM14.9048 5.2252L12.2751 7.2751L12.4201 7.45239L14.9048 5.2252ZM14.7318 5.0369L12.1202 7.1066L12.2751 7.2751L14.7318 5.0369ZM14.5477 4.85843L11.9555 6.94688L12.1202 7.1066L14.5477 4.85843ZM14.3526 4.68978L11.7809 6.79595L11.9555 6.94688L14.3526 4.68978ZM14.1464 4.53095L11.5964 6.65381L11.7809 6.79595L14.1464 4.53095ZM13.9337 4.38344L11.406 6.52181L11.5964 6.65381L13.9337 4.38344ZM13.7139 4.24876L11.2094 6.40128L11.406 6.52181L13.7139 4.24876ZM13.4872 4.12691L11.0064 6.29223L11.2094 6.40128L13.4872 4.12691ZM13.2534 4.01788L10.7972 6.19466L11.0064 6.29223L13.2534 4.01788ZM13.0126 3.92168L10.5817 6.10857L10.7972 6.19466L13.0126 3.92168ZM12.7648 3.8383L10.3599 6.03396L10.5817 6.10857L12.7648 3.8383ZM12.5099 3.76776L10.1319 5.97083L10.3599 6.03396L12.5099 3.76776ZM12.2481 3.71004L9.89756 5.91917L10.1319 5.97083L12.2481 3.71004ZM11.9792 3.66514L9.65696 5.879L9.89756 5.91917L11.9792 3.66514ZM11.7034 3.63308L9.41008 5.8503L9.65696 5.879L11.7034 3.63308ZM11.4205 3.61384L9.15691 5.83308L9.41008 5.8503L11.4205 3.61384ZM11.1306 3.60742L8.89748 5.82734L9.15691 5.83308L11.1306 3.60742ZM10.7079 3.62035L8.51921 5.83891L8.89748 5.82734L10.7079 3.62035ZM10.3008 3.65913L8.15494 5.87362L8.51921 5.83891L10.3008 3.65913ZM9.90941 3.72376L7.80466 5.93146L8.15494 5.87362L9.90941 3.72376ZM9.53363 3.81425L7.46837 6.01244L7.80466 5.93146L9.53363 3.81425ZM9.17348 3.9306L7.14607 6.11655L7.46837 6.01244L9.17348 3.9306ZM8.82896 4.07279L6.83776 6.24381L7.14607 6.11655L8.82896 4.07279ZM8.50007 4.24084L6.54343 6.3942L6.83776 6.24381L8.50007 4.24084ZM8.18682 4.43475L6.2631 6.56772L6.54343 6.3942L8.18682 4.43475ZM7.8892 4.65451L5.99676 6.76439L6.2631 6.56772L7.8892 4.65451ZM7.60721 4.90012L5.7444 6.98419L5.99676 6.76439L7.60721 4.90012ZM7.34086 5.17158L5.50604 7.22712L5.7444 6.98419L7.34086 5.17158ZM13.2698 21.3925L12.6121 21.4767L10.8119 21.7434L13.2698 21.3925ZM12.6121 21.4767L11.9278 21.5272L10.2233 21.8187L12.6121 21.4767ZM11.9278 21.5272L11.2171 21.544L9.61095 21.8639L11.9278 21.5272ZM11.2171 21.544L10.4517 21.524L8.97496 21.879L11.2171 21.544ZM10.4517 21.524L9.71401 21.4639L8.29 21.861L10.4517 21.524ZM9.71401 21.4639L9.00392 21.3637L7.62979 21.8072L9.71401 21.4639ZM9.00392 21.3637L8.3215 21.2234L6.99433 21.7175L9.00392 21.3637ZM8.3215 21.2234L7.66674 21.043L6.38363 21.592L8.3215 21.2234ZM7.66674 21.043L7.03963 20.8225L5.79767 21.4306L7.66674 21.043ZM7.03963 20.8225L6.44018 20.562L5.23647 21.2333L7.03963 20.8225ZM6.44018 20.562L5.86839 20.2614L4.70002 21.0001L6.44018 20.562ZM5.86839 20.2614L5.32425 19.9206L4.18831 20.7311L5.86839 20.2614ZM5.32425 19.9206L4.80777 19.5398L3.70136 20.4262L5.32425 19.9206ZM4.80777 19.5398L4.31895 19.119L3.23916 20.0854L4.80777 19.5398ZM4.31895 19.119L3.85779 18.658L2.80171 19.7088L4.31895 19.119ZM3.85779 18.658L3.4314 18.1619L2.38902 19.2962L3.85779 18.658ZM3.4314 18.1619L3.04209 17.6355L2.00744 18.8522L3.4314 18.1619ZM3.04209 17.6355L2.68986 17.0788L1.65904 18.3812L3.04209 17.6355ZM2.68986 17.0788L2.3747 16.4919L1.34382 17.883L2.68986 17.0788ZM2.3747 16.4919L2.09662 15.8747L1.06179 17.3578L2.3747 16.4919ZM2.09662 15.8747L1.85562 15.2273L0.812929 16.8054L2.09662 15.8747ZM1.85562 15.2273L1.65169 14.5495L0.597255 16.226L1.85562 15.2273ZM1.65169 14.5495L1.48484 13.8416L0.414759 15.6195L1.65169 14.5495ZM1.48484 13.8416L1.35507 13.1033L0.265446 14.986L1.48484 13.8416ZM1.35507 13.1033L1.26238 12.3348L0.149313 14.3253L1.35507 13.1033ZM1.26238 12.3348L1.20676 11.5361L0.0663613 13.6376L1.26238 12.3348ZM1.20676 11.5361L1.18823 10.707L0.0165906 12.9227L1.20676 11.5361ZM1.18823 10.707L1.20666 9.88972L0 12.1808L1.18823 10.707ZM1.20666 9.88972L1.26198 9.10208L0.0165007 11.4494L1.20666 9.88972ZM1.26198 9.10208L1.35417 8.3441L0.0660029 10.7446L1.26198 9.10208ZM1.35417 8.3441L1.48324 7.61578L0.148506 10.0662L1.35417 8.3441ZM1.48324 7.61578L1.64919 6.91712L0.264012 9.41446L1.48324 7.61578ZM1.64919 6.91712L1.85201 6.24813L0.412518 8.78922L1.64919 6.91712ZM1.85201 6.24813L2.09171 5.6088L0.594026 8.19053L1.85201 6.24813ZM2.09171 5.6088L2.36829 4.99912L0.808535 7.61839L2.09171 5.6088ZM2.36829 4.99912L2.68174 4.41911L1.05605 7.07279L2.36829 4.99912ZM20.2648 7.08507H15.8925L17.0718 8.93952L20.2648 7.08507ZM15.8925 7.08507L15.8076 6.81822L13.159 8.93952L15.8925 7.08507ZM15.8076 6.81822L15.7117 6.56118L13.083 8.70071L15.8076 6.81822ZM15.7117 6.56118L15.6048 6.31397L12.9972 8.47069L15.7117 6.56118ZM15.6048 6.31397L15.4868 6.07657L12.9015 8.24945L15.6048 6.31397ZM15.4868 6.07657L15.3579 5.849L12.796 8.037L15.4868 6.07657ZM15.3579 5.849L15.2179 5.63124L12.6805 7.83335L15.3579 5.849ZM15.2179 5.63124L15.0669 5.42331L12.5553 7.63848L15.2179 5.63124ZM15.0669 5.42331L14.9048 5.2252L12.4201 7.45239L15.0669 5.42331ZM14.9048 5.2252L14.7318 5.0369L12.2751 7.2751L14.9048 5.2252ZM14.7318 5.0369L14.5477 4.85843L12.1202 7.1066L14.7318 5.0369ZM14.5477 4.85843L14.3526 4.68978L11.9555 6.94688L14.5477 4.85843ZM14.3526 4.68978L14.1464 4.53095L11.7809 6.79595L14.3526 4.68978ZM14.1464 4.53095L13.9337 4.38344L11.5964 6.65381L14.1464 4.53095ZM13.9337 4.38344L13.7139 4.24876L11.406 6.52181L13.9337 4.38344ZM13.7139 4.24876L13.4872 4.12691L11.2094 6.40128L13.7139 4.24876ZM13.4872 4.12691L13.2534 4.01788L11.0064 6.29223L13.4872 4.12691ZM13.2534 4.01788L13.0126 3.92168L10.7972 6.19466L13.2534 4.01788ZM13.0126 3.92168L12.7648 3.8383L10.5817 6.10857L13.0126 3.92168ZM12.7648 3.8383L12.5099 3.76776L10.3599 6.03396L12.7648 3.8383ZM12.5099 3.76776L12.2481 3.71004L10.1319 5.97083L12.5099 3.76776ZM12.2481 3.71004L11.9792 3.66514L9.89756 5.91917L12.2481 3.71004ZM11.9792 3.66514L11.7034 3.63308L9.65696 5.879L11.9792 3.66514ZM11.7034 3.63308L11.4205 3.61384L9.41008 5.8503L11.7034 3.63308ZM11.4205 3.61384L11.1306 3.60742L9.15691 5.83308L11.4205 3.61384ZM11.1306 3.60742L10.7079 3.62035L8.89748 5.82734L11.1306 3.60742ZM10.7079 3.62035L10.3008 3.65913L8.51921 5.83891L10.7079 3.62035ZM10.3008 3.65913L9.90941 3.72376L8.15494 5.87362L10.3008 3.65913ZM9.90941 3.72376L9.53363 3.81425L7.80466 5.93146L9.90941 3.72376ZM9.53363 3.81425L9.17348 3.9306L7.46837 6.01244L9.53363 3.81425ZM9.17348 3.9306L8.82896 4.07279L7.14607 6.11655L9.17348 3.9306ZM8.82896 4.07279L8.50007 4.24084L6.83776 6.24381L8.82896 4.07279ZM8.50007 4.24084L8.18682 4.43475L6.54343 6.3942L8.50007 4.24084ZM8.18682 4.43475L7.8892 4.65451L6.2631 6.56772L8.18682 4.43475ZM7.8892 4.65451L7.60721 4.90012L5.99676 6.76439L7.8892 4.65451ZM7.60721 4.90012L7.34086 5.17158L5.7444 6.98419L7.60721 4.90012ZM12.9312 17.7141L13.2265 17.6227L10.5089 18.4516L12.9312 17.7141ZM13.2265 17.6227L13.5108 17.5145L10.7732 18.3697L13.2265 17.6227ZM13.5108 17.5145L13.7841 17.3898L11.0276 18.2729L13.5108 17.5145ZM13.7841 17.3898L14.0463 17.2484L11.2721 18.1613L13.7841 17.3898ZM14.0463 17.2484L14.2976 17.0903L11.5068 18.0347L14.0463 17.2484ZM14.2976 17.0903L14.5378 16.9157L11.7317 17.8933L14.2976 17.0903ZM14.5378 16.9157L14.7669 16.7244L11.9466 17.737L14.5378 16.9157ZM14.7669 16.7244L14.9841 16.5197L12.1517 17.5658L14.7669 16.7244ZM14.9841 16.5197L15.1834 16.3047L12.346 17.3826L14.9841 16.5197ZM15.1834 16.3047L15.3649 16.0795L12.5244 17.1902L15.1834 16.3047ZM15.3649 16.0795L15.5285 15.8441L12.6868 16.9887L15.3649 16.0795ZM15.5285 15.8441L15.6743 15.5985L12.8333 16.7781L15.5285 15.8441ZM15.6743 15.5985L15.8023 15.3427L12.9637 16.5583L15.6743 15.5985ZM15.8023 15.3427L15.9124 15.0766L13.0783 16.3293L15.8023 15.3427ZM15.9124 15.0766L16.0047 14.8004L13.1768 16.0912L15.9124 15.0766ZM16.0047 14.8004L16.0792 14.5139L13.2594 15.844L16.0047 14.8004ZM16.0792 14.5139L16.1358 14.2171L13.326 15.5876L16.0792 14.5139ZM16.1358 14.2171L16.1746 13.9102L13.3767 15.3221L16.1358 14.2171ZM16.1746 13.9102L16.1955 13.593L13.4114 15.0474L16.1746 13.9102ZM16.1955 13.593L16.21 13.2612L13.4302 14.7636L16.1955 13.593ZM16.21 13.2612H11.6789L13.4431 14.4665L16.21 13.2612ZM11.6789 13.2612V10.0865L9.38819 14.4665L11.6789 13.2612Z" fill="#181C28"/>
<path d="M20.4366 13.1355L20.4536 12.4387V10.0866L20.4366 13.1355ZM20.3003 14.4526L20.3855 13.8068L20.4366 13.1355L20.3003 14.4526ZM20.0277 15.668L20.1811 15.073L20.3003 14.4526L20.0277 15.668ZM19.6189 16.7815L19.8404 16.2375L20.0277 15.668L19.6189 16.7815ZM19.0738 17.7932L19.3634 17.3001L19.6189 16.7815L19.0738 17.7932ZM18.3923 18.7031L18.7501 18.2609L19.0738 17.7932L18.3923 18.7031ZM17.5808 19.5071L18.0005 19.1199L18.3923 18.7031L17.5808 19.5071ZM16.6621 20.1805L17.1347 19.8606L17.5808 19.5071L16.6621 20.1805ZM15.6376 20.7192L16.1631 20.4667L16.6621 20.1805L15.6376 20.7192ZM14.5072 21.1233L15.0856 20.9381L15.6376 20.7192L14.5072 21.1233ZM13.2711 21.3926L13.9024 21.2748L14.5072 21.1233L13.2711 21.3926ZM11.9291 21.5273L12.6133 21.4768L13.2711 21.3926L11.9291 21.5273ZM10.453 21.5241L11.2184 21.5441L11.9291 21.5273L10.453 21.5241ZM9.00515 21.3638L9.71523 21.464L10.453 21.5241L9.00515 21.3638ZM7.66796 21.0431L8.32273 21.2235L9.00515 21.3638L7.66796 21.0431ZM6.44141 20.5621L7.04086 20.8226L7.66796 21.0431L6.44141 20.5621ZM5.32548 19.9207L5.86961 20.2615L6.44141 20.5621L5.32548 19.9207ZM4.32018 19.1191L4.809 19.5399L5.32548 19.9207L4.32018 19.1191ZM3.43263 18.162L3.85902 18.6581L4.32018 19.1191L3.43263 18.162ZM2.69108 17.0789L3.04332 17.6356L3.43263 18.162L2.69108 17.0789ZM2.09785 15.8748L2.37593 16.492L2.69108 17.0789L2.09785 15.8748ZM1.65292 14.5496L1.85685 15.2274L2.09785 15.8748L1.65292 14.5496ZM1.3563 13.1034L1.48607 13.8417L1.65292 14.5496L1.3563 13.1034ZM1.20799 11.5362L1.26361 12.3349L1.3563 13.1034L1.20799 11.5362ZM1.20789 9.88982L1.18945 10.7071L1.20799 11.5362L1.20789 9.88982ZM1.3554 8.3442L1.26321 9.10218L1.20789 9.88982L1.3554 8.3442ZM1.65041 6.91723L1.48447 7.61588L1.3554 8.3442L1.65041 6.91723ZM2.09294 5.6089L1.85324 6.24823L1.65041 6.91723L2.09294 5.6089ZM2.68297 4.41922L2.36951 4.99923L2.09294 5.6089L2.68297 4.41922ZM3.42051 3.34818L3.0333 3.86887L2.68297 4.41922L3.42051 3.34818ZM4.30295 2.40081L3.84459 2.85716L3.42051 3.34818L4.30295 2.40081ZM5.30023 1.60715L4.78816 1.98414L4.30295 2.40081L5.30023 1.60715ZM6.40493 0.972228L5.83915 1.26985L5.30023 1.60715L6.40493 0.972228ZM7.61706 0.496034L6.99757 0.71429L6.40493 0.972228L7.61706 0.496034ZM8.93661 0.178572L8.26341 0.317462L7.61706 0.496034L8.93661 0.178572ZM10.3636 0.0198414L9.63667 0.0793655L8.93661 0.178572L10.3636 0.0198414ZM11.7157 0.0136286L11.1174 0L10.3636 0.0198414L11.7157 0.0136286ZM12.8661 0.122656L12.2986 0.0545136L11.7157 0.0136286L12.8661 0.122656ZM13.9548 0.34071L13.4182 0.218054L12.8661 0.122656L13.9548 0.34071ZM14.9817 0.667793L14.476 0.490623L13.9548 0.34071L14.9817 0.667793ZM15.9469 1.1039L15.472 0.872219L14.9817 0.667793L15.9469 1.1039ZM16.8504 1.64904L16.4064 1.36284L15.9469 1.1039L16.8504 1.64904ZM17.6856 2.29789L17.279 1.96249L16.8504 1.64904L17.6856 2.29789ZM18.4127 3.0186L18.0634 2.64993L17.6856 2.29789L18.4127 3.0186ZM19.0252 3.80584L18.7332 3.4039L18.4127 3.0186L19.0252 3.80584ZM19.523 4.65962L19.2884 4.22441L19.0252 3.80584L19.523 4.65962ZM19.9062 5.57994L19.7289 5.11146L19.523 4.65962L19.9062 5.57994ZM20.1747 6.56679L20.0548 6.06505L19.9062 5.57994L20.1747 6.56679ZM15.8937 7.08518H20.266L20.1747 6.56679L15.8937 7.08518ZM11.6801 10.0866V13.2613H16.2112L11.6801 10.0866ZM20.4366 13.1355L20.4536 10.0866H11.6801L20.4366 13.1355ZM20.0277 15.668L20.3003 14.4526L20.4366 13.1355L20.0277 15.668ZM19.0738 17.7932L19.6189 16.7815L20.0277 15.668L19.0738 17.7932ZM17.5808 19.5071L18.3923 18.7031L19.0738 17.7932L17.5808 19.5071ZM15.6376 20.7192L16.6621 20.1805L17.5808 19.5071L15.6376 20.7192ZM13.2711 21.3926L14.5072 21.1233L15.6376 20.7192L13.2711 21.3926ZM10.453 21.5241L11.9291 21.5273L13.2711 21.3926L10.453 21.5241ZM7.66796 21.0431L9.00515 21.3638L10.453 21.5241L7.66796 21.0431ZM5.32548 19.9207L6.44141 20.5621L7.66796 21.0431L5.32548 19.9207ZM3.43263 18.162L4.32018 19.1191L5.32548 19.9207L3.43263 18.162ZM2.09785 15.8748L2.69108 17.0789L3.43263 18.162L2.09785 15.8748ZM1.3563 13.1034L1.65292 14.5496L2.09785 15.8748L1.3563 13.1034ZM1.20789 9.88982L1.20799 11.5362L1.3563 13.1034L1.20789 9.88982ZM1.65041 6.91723L1.3554 8.3442L1.20789 9.88982L1.65041 6.91723ZM2.68297 4.41922L2.09294 5.6089L1.65041 6.91723L2.68297 4.41922ZM4.30295 2.40081L3.42051 3.34818L2.68297 4.41922L4.30295 2.40081ZM6.40493 0.972228L5.30023 1.60715L4.30295 2.40081L6.40493 0.972228ZM8.93661 0.178572L7.61706 0.496034L6.40493 0.972228L8.93661 0.178572ZM11.7157 0.0136286L10.3636 0.0198414L8.93661 0.178572L11.7157 0.0136286ZM13.9548 0.34071L12.8661 0.122656L11.7157 0.0136286L13.9548 0.34071ZM15.9469 1.1039L14.9817 0.667793L13.9548 0.34071L15.9469 1.1039ZM17.6856 2.29789L16.8504 1.64904L15.9469 1.1039L17.6856 2.29789ZM19.0252 3.80584L18.4127 3.0186L17.6856 2.29789L19.0252 3.80584ZM19.9062 5.57994L19.523 4.65962L19.0252 3.80584L19.9062 5.57994ZM15.8937 7.08518L20.1747 6.56679L19.9062 5.57994L15.8937 7.08518ZM20.4366 13.1355L11.6801 10.0866L16.2112 13.2613L20.4366 13.1355ZM19.0738 17.7932L20.0277 15.668L20.4366 13.1355L19.0738 17.7932ZM15.6376 20.7192L17.5808 19.5071L19.0738 17.7932L15.6376 20.7192ZM10.453 21.5241L13.2711 21.3926L15.6376 20.7192L10.453 21.5241ZM5.32548 19.9207L7.66796 21.0431L10.453 21.5241L5.32548 19.9207ZM2.09785 15.8748L3.43263 18.162L5.32548 19.9207L2.09785 15.8748ZM1.20789 9.88982L1.3563 13.1034L2.09785 15.8748L1.20789 9.88982ZM2.68297 4.41922L1.65041 6.91723L1.20789 9.88982L2.68297 4.41922ZM6.40493 0.972228L4.30295 2.40081L2.68297 4.41922L6.40493 0.972228ZM11.7157 0.0136286L8.93661 0.178572L6.40493 0.972228L11.7157 0.0136286ZM15.9469 1.1039L13.9548 0.34071L11.7157 0.0136286L15.9469 1.1039ZM19.0252 3.80584L17.6856 2.29789L15.9469 1.1039L19.0252 3.80584ZM15.8937 7.08518L19.9062 5.57994L19.0252 3.80584L15.8937 7.08518ZM20.4366 13.1355L16.2112 13.2613L16.1968 13.5931L20.4366 13.1355ZM15.6376 20.7192L19.0738 17.7932L20.4366 13.1355L15.6376 20.7192ZM5.32548 19.9207L10.453 21.5241L15.6376 20.7192L5.32548 19.9207ZM1.20789 9.88982L2.09785 15.8748L5.32548 19.9207L1.20789 9.88982ZM6.40493 0.972228L2.68297 4.41922L1.20789 9.88982L6.40493 0.972228ZM15.9469 1.1039L11.7157 0.0136286L6.40493 0.972228L15.9469 1.1039ZM15.8937 7.08518L19.0252 3.80584L15.9469 1.1039L15.8937 7.08518ZM20.4366 13.1355L16.1968 13.5931L16.1758 13.9103L20.4366 13.1355ZM15.8088 6.81832L15.8937 7.08518L15.9469 1.1039L15.8088 6.81832ZM20.4366 13.1355L16.1758 13.9103L16.137 14.2172L20.4366 13.1355ZM15.7129 6.56128L15.8088 6.81832L15.9469 1.1039L15.7129 6.56128ZM20.4366 13.1355L16.137 14.2172L16.0804 14.514L20.4366 13.1355ZM15.606 6.31407L15.7129 6.56128L15.9469 1.1039L15.606 6.31407ZM20.4366 13.1355L16.0804 14.514L16.006 14.8005L20.4366 13.1355ZM15.4881 6.07667L15.606 6.31407L15.9469 1.1039L15.4881 6.07667ZM20.4366 13.1355L16.006 14.8005L15.9137 15.0767L20.4366 13.1355ZM15.3591 5.8491L15.4881 6.07667L15.9469 1.1039L15.3591 5.8491ZM20.4366 13.1355L15.9137 15.0767L15.8035 15.3428L20.4366 13.1355ZM15.2191 5.63134L15.3591 5.8491L15.9469 1.1039L15.2191 5.63134ZM20.4366 13.1355L15.8035 15.3428L15.6756 15.5986L20.4366 13.1355ZM15.0681 5.42341L15.2191 5.63134L15.9469 1.1039L15.0681 5.42341ZM20.4366 13.1355L15.6756 15.5986L15.5298 15.8442L20.4366 13.1355ZM14.9061 5.2253L15.0681 5.42341L15.9469 1.1039L14.9061 5.2253ZM20.4366 13.1355L15.5298 15.8442L15.3661 16.0796L20.4366 13.1355ZM14.733 5.037L14.9061 5.2253L15.9469 1.1039L14.733 5.037ZM20.4366 13.1355L15.3661 16.0796L15.1846 16.3048L20.4366 13.1355ZM14.5489 4.85853L14.733 5.037L15.9469 1.1039L14.5489 4.85853ZM20.4366 13.1355L15.1846 16.3048L14.9853 16.5198L20.4366 13.1355ZM14.3538 4.68988L14.5489 4.85853L15.9469 1.1039L14.3538 4.68988ZM20.4366 13.1355L14.9853 16.5198L14.7682 16.7245L20.4366 13.1355ZM14.1477 4.53105L14.3538 4.68988L15.9469 1.1039L14.1477 4.53105ZM20.4366 13.1355L14.7682 16.7245L14.539 16.9158L20.4366 13.1355ZM13.9349 4.38354L14.1477 4.53105L15.9469 1.1039L13.9349 4.38354ZM20.4366 13.1355L14.539 16.9158L14.2988 17.0904L20.4366 13.1355ZM13.7152 4.24886L13.9349 4.38354L15.9469 1.1039L13.7152 4.24886ZM15.6376 20.7192L20.4366 13.1355L14.2988 17.0904L15.6376 20.7192ZM13.4884 4.12701L13.7152 4.24886L15.9469 1.1039L13.4884 4.12701ZM15.6376 20.7192L14.2988 17.0904L14.0476 17.2485L15.6376 20.7192ZM13.2546 4.01798L13.4884 4.12701L15.9469 1.1039L13.2546 4.01798ZM15.6376 20.7192L14.0476 17.2485L13.7853 17.3899L15.6376 20.7192ZM13.2546 4.01798L15.9469 1.1039L6.40493 0.972228L13.2546 4.01798ZM15.6376 20.7192L13.7853 17.3899L13.5121 17.5146L15.6376 20.7192ZM13.0138 3.92178L13.2546 4.01798L6.40493 0.972228L13.0138 3.92178ZM15.6376 20.7192L13.5121 17.5146L13.2278 17.6228L15.6376 20.7192ZM12.766 3.8384L13.0138 3.92178L6.40493 0.972228L12.766 3.8384ZM15.6376 20.7192L13.2278 17.6228L12.9324 17.7142L15.6376 20.7192ZM12.5112 3.76786L12.766 3.8384L6.40493 0.972228L12.5112 3.76786ZM15.6376 20.7192L12.9324 17.7142L12.6261 17.7891L15.6376 20.7192ZM12.2493 3.71014L12.5112 3.76786L6.40493 0.972228L12.2493 3.71014ZM15.6376 20.7192L12.6261 17.7891L12.3087 17.8473L15.6376 20.7192ZM11.9805 3.66524L12.2493 3.71014L6.40493 0.972228L11.9805 3.66524ZM15.6376 20.7192L12.3087 17.8473L11.9804 17.8889L15.6376 20.7192ZM11.7046 3.63318L11.9805 3.66524L6.40493 0.972228L11.7046 3.63318ZM15.6376 20.7192L11.9804 17.8889L11.641 17.9139L15.6376 20.7192ZM11.4217 3.61394L11.7046 3.63318L6.40493 0.972228L11.4217 3.61394ZM15.6376 20.7192L11.641 17.9139L11.2905 17.9222L15.6376 20.7192ZM11.1318 3.60752L11.4217 3.61394L6.40493 0.972228L11.1318 3.60752ZM15.6376 20.7192L11.2905 17.9222L10.8627 17.9086L15.6376 20.7192ZM10.7091 3.62045L11.1318 3.60752L6.40493 0.972228L10.7091 3.62045ZM15.6376 20.7192L10.8627 17.9086L10.45 17.8681L15.6376 20.7192ZM10.3021 3.65923L10.7091 3.62045L6.40493 0.972228L10.3021 3.65923ZM15.6376 20.7192L10.45 17.8681L10.0522 17.8004L15.6376 20.7192ZM9.91064 3.72387L10.3021 3.65923L6.40493 0.972228L9.91064 3.72387ZM15.6376 20.7192L10.0522 17.8004L9.66954 17.7057L15.6376 20.7192ZM9.53486 3.81435L9.91064 3.72387L6.40493 0.972228L9.53486 3.81435ZM15.6376 20.7192L9.66954 17.7057L9.30187 17.584L15.6376 20.7192ZM9.17471 3.9307L9.53486 3.81435L6.40493 0.972228L9.17471 3.9307ZM15.6376 20.7192L9.30187 17.584L8.94924 17.4352L15.6376 20.7192ZM8.83019 4.07289L9.17471 3.9307L6.40493 0.972228L8.83019 4.07289ZM5.32548 19.9207L15.6376 20.7192L8.94924 17.4352L5.32548 19.9207ZM8.5013 4.24094L8.83019 4.07289L6.40493 0.972228L8.5013 4.24094ZM5.32548 19.9207L8.94924 17.4352L8.61163 17.2593L5.32548 19.9207ZM8.18805 4.43485L8.5013 4.24094L6.40493 0.972228L8.18805 4.43485ZM5.32548 19.9207L8.61163 17.2593L8.28906 17.0564L5.32548 19.9207ZM7.89043 4.65461L8.18805 4.43485L6.40493 0.972228L7.89043 4.65461ZM5.32548 19.9207L8.28906 17.0564L7.98152 16.8264L5.32548 19.9207ZM7.89043 4.65461L6.40493 0.972228L1.20789 9.88982L7.89043 4.65461ZM5.32548 19.9207L7.98152 16.8264L7.68901 16.5694L5.32548 19.9207ZM7.60844 4.90022L7.89043 4.65461L1.20789 9.88982L7.60844 4.90022ZM5.32548 19.9207L7.68901 16.5694L7.41153 16.2853L5.32548 19.9207ZM7.34208 5.17169L7.60844 4.90022L1.20789 9.88982L7.34208 5.17169ZM5.32548 19.9207L7.41153 16.2853L7.14908 15.9741L5.32548 19.9207ZM7.09136 5.46901L7.34208 5.17169L1.20789 9.88982L7.09136 5.46901ZM5.32548 19.9207L7.14908 15.9741L6.90708 15.6395L5.32548 19.9207ZM6.85858 5.78937L7.09136 5.46901L1.20789 9.88982L6.85858 5.78937ZM5.32548 19.9207L6.90708 15.6395L6.68612 15.2851L5.32548 19.9207ZM6.64603 6.12998L6.85858 5.78937L1.20789 9.88982L6.64603 6.12998ZM5.32548 19.9207L6.68612 15.2851L6.4862 14.9108L5.32548 19.9207ZM6.45373 6.49084L6.64603 6.12998L1.20789 9.88982L6.45373 6.49084ZM5.32548 19.9207L6.4862 14.9108L6.30733 14.5167L5.32548 19.9207ZM6.28167 6.87193L6.45373 6.49084L1.20789 9.88982L6.28167 6.87193ZM5.32548 19.9207L6.30733 14.5167L6.1495 14.1027L5.32548 19.9207ZM6.12986 7.27327L6.28167 6.87193L1.20789 9.88982L6.12986 7.27327ZM5.32548 19.9207L6.1495 14.1027L6.01271 13.6689L5.32548 19.9207ZM5.99828 7.69485L6.12986 7.27327L1.20789 9.88982L5.99828 7.69485ZM5.32548 19.9207L6.01271 13.6689L5.89697 13.2153L5.32548 19.9207ZM5.88695 8.13667L5.99828 7.69485L1.20789 9.88982L5.88695 8.13667ZM5.32548 19.9207L5.89697 13.2153L5.80227 12.7418L5.32548 19.9207ZM5.79586 8.59873L5.88695 8.13667L1.20789 9.88982L5.79586 8.59873ZM5.32548 19.9207L5.80227 12.7418L5.72862 12.2484L5.32548 19.9207ZM5.72501 9.08104L5.79586 8.59873L1.20789 9.88982L5.72501 9.08104ZM5.32548 19.9207L5.72862 12.2484L5.67601 11.7353L5.32548 19.9207ZM5.67441 9.58359L5.72501 9.08104L1.20789 9.88982L5.67441 9.58359ZM5.32548 19.9207L5.67601 11.7353L5.64444 11.2023L5.32548 19.9207ZM5.64404 10.1064L5.67441 9.58359L1.20789 9.88982L5.64404 10.1064ZM5.32548 19.9207L5.64444 11.2023L5.63392 10.6494L5.32548 19.9207ZM5.64404 10.1064L1.20789 9.88982L5.32548 19.9207L5.64404 10.1064ZM5.32548 19.9207L5.63392 10.6494L5.64404 10.1064L5.32548 19.9207Z" fill="#292554"/>
</svg>
