<svg width="851" height="172" viewBox="0 0 851 172" fill="none" xmlns="http://www.w3.org/2000/svg">
<g opacity="0.1">
<mask id="path-1-outside-1_6_46085" maskUnits="userSpaceOnUse" x="0" y="0" width="851" height="172" fill="black">
<rect fill="white" width="851" height="172"/>
<path d="M105.76 35.64H31.84V75.96H98.8V105.24H31.84V165H1.84V6.59999H105.76V35.64ZM184.563 170.04C148.083 170.04 118.082 147.48 118.082 109.56V61.32C118.082 23.16 148.562 1.55999 184.563 1.55999C221.283 1.55999 251.283 23.16 251.283 61.32V109.56C251.283 147.48 221.283 170.04 184.563 170.04ZM184.563 141.96C205.683 141.96 221.283 129.72 221.283 107.4V63.24C221.283 41.16 205.443 29.64 184.563 29.64C165.603 29.64 148.083 41.16 148.083 63.24V107.4C148.083 129.72 165.363 141.96 184.563 141.96ZM368.618 165L332.378 107.88H302.618V165H272.618V6.59999H341.738C378.698 6.59999 395.018 29.16 395.018 56.28C395.018 77.16 384.218 95.64 363.578 103.08L403.418 165H368.618ZM302.618 35.64V78.6H341.738C358.538 78.6 365.018 68.04 365.018 56.28C365.018 46.2 358.538 35.64 341.738 35.64H302.618ZM527.995 6.59999V35.64H480.475V165H450.475V35.64H402.715V6.59999H527.995ZM570.584 6.59999V165H540.584V6.59999H570.584ZM689.584 6.59999H718.624V165H698.464L622.864 65.64V165H593.824V6.59999H614.464L689.584 105.96V6.59999ZM771.752 135.96H849.992V165H741.752V6.59999H847.832V35.64H771.752V71.4H840.872V98.52H771.752V135.96Z"/>
</mask>
<path d="M105.76 35.64V36.64H106.76V35.64H105.76ZM31.84 35.64V34.64H30.84V35.64H31.84ZM31.84 75.96H30.84V76.96H31.84V75.96ZM98.8 75.96H99.8V74.96H98.8V75.96ZM98.8 105.24V106.24H99.8V105.24H98.8ZM31.84 105.24V104.24H30.84V105.24H31.84ZM31.84 165V166H32.84V165H31.84ZM1.84 165H0.84V166H1.84V165ZM1.84 6.59999V5.59999H0.84V6.59999H1.84ZM105.76 6.59999H106.76V5.59999H105.76V6.59999ZM105.76 35.64V34.64H31.84V35.64V36.64H105.76V35.64ZM31.84 35.64H30.84V75.96H31.84H32.84V35.64H31.84ZM31.84 75.96V76.96H98.8V75.96V74.96H31.84V75.96ZM98.8 75.96H97.8V105.24H98.8H99.8V75.96H98.8ZM98.8 105.24V104.24H31.84V105.24V106.24H98.8V105.24ZM31.84 105.24H30.84V165H31.84H32.84V105.24H31.84ZM31.84 165V164H1.84V165V166H31.84V165ZM1.84 165H2.84V6.59999H1.84H0.84V165H1.84ZM1.84 6.59999V7.59999H105.76V6.59999V5.59999H1.84V6.59999ZM105.76 6.59999H104.76V35.64H105.76H106.76V6.59999H105.76ZM184.562 170.04V169.04C166.522 169.04 150.146 163.462 138.295 153.262C126.46 143.076 119.083 128.234 119.083 109.56H118.083H117.083C117.083 128.806 124.705 144.204 136.99 154.778C149.259 165.338 166.123 171.04 184.562 171.04V170.04ZM118.083 109.56H119.083V61.32H118.083H117.083V109.56H118.083ZM118.083 61.32H119.083C119.083 42.5312 126.575 27.8732 138.465 17.896C150.374 7.90292 166.754 2.55999 184.562 2.55999V1.55999V0.55999C166.371 0.55999 149.511 6.01705 137.18 16.364C124.83 26.7267 117.083 41.9488 117.083 61.32H118.083ZM184.562 1.55999V2.55999C202.735 2.55999 219.172 7.90495 231.049 17.8952C242.906 27.8695 250.283 42.5261 250.283 61.32H251.283H252.283C252.283 41.9539 244.659 26.7305 232.336 16.3647C220.033 6.01504 203.11 0.55999 184.562 0.55999V1.55999ZM251.283 61.32H250.283V109.56H251.283H252.283V61.32H251.283ZM251.283 109.56H250.283C250.283 128.234 242.905 143.075 231.041 153.261C219.161 163.461 202.724 169.04 184.562 169.04V170.04V171.04C203.121 171.04 220.044 165.339 232.344 154.779C244.66 144.205 252.283 128.806 252.283 109.56H251.283ZM184.562 141.96V142.96C195.309 142.96 204.746 139.845 211.509 133.795C218.287 127.732 222.283 118.808 222.283 107.4H221.283H220.283C220.283 118.312 216.478 126.668 210.176 132.305C203.859 137.955 194.936 140.96 184.562 140.96V141.96ZM221.283 107.4H222.283V63.24H221.283H220.283V107.4H221.283ZM221.283 63.24H222.283C222.283 51.9418 218.219 43.252 211.404 37.4012C204.609 31.5682 195.177 28.64 184.562 28.64V29.64V30.64C194.828 30.64 203.756 33.4718 210.101 38.9188C216.426 44.348 220.283 52.4582 220.283 63.24H221.283ZM184.562 29.64V28.64C174.89 28.64 165.531 31.5773 158.571 37.3926C151.59 43.226 147.083 51.9089 147.083 63.24H148.083H149.083C149.083 52.4911 153.335 44.374 159.854 38.9274C166.394 33.4627 175.275 30.64 184.562 30.64V29.64ZM148.083 63.24H147.083V107.4H148.083H149.083V63.24H148.083ZM148.083 107.4H147.083C147.083 118.84 151.521 127.758 158.466 133.804C165.394 139.835 174.758 142.96 184.562 142.96V141.96V140.96C175.167 140.96 166.291 137.965 159.779 132.296C153.284 126.642 149.083 118.28 149.083 107.4H148.083ZM368.618 165L367.774 165.536L368.068 166H368.618V165ZM332.378 107.88L333.223 107.344L332.928 106.88H332.378V107.88ZM302.618 107.88V106.88H301.618V107.88H302.618ZM302.618 165V166H303.618V165H302.618ZM272.618 165H271.618V166H272.618V165ZM272.618 6.59999V5.59999H271.618V6.59999H272.618ZM363.578 103.08L363.239 102.139L362.058 102.565L362.737 103.621L363.578 103.08ZM403.418 165V166H405.251L404.259 164.459L403.418 165ZM302.618 35.64V34.64H301.618V35.64H302.618ZM302.618 78.6H301.618V79.6H302.618V78.6ZM368.618 165L369.463 164.464L333.223 107.344L332.378 107.88L331.534 108.416L367.774 165.536L368.618 165ZM332.378 107.88V106.88H302.618V107.88V108.88H332.378V107.88ZM302.618 107.88H301.618V165H302.618H303.618V107.88H302.618ZM302.618 165V164H272.618V165V166H302.618V165ZM272.618 165H273.618V6.59999H272.618H271.618V165H272.618ZM272.618 6.59999V7.59999H341.738V6.59999V5.59999H272.618V6.59999ZM341.738 6.59999V7.59999C360.009 7.59999 373.046 13.1703 381.518 21.9638C389.999 30.7664 394.018 42.9155 394.018 56.28H395.018H396.018C396.018 42.5245 391.877 29.8336 382.958 20.5762C374.03 11.3097 360.427 5.59999 341.738 5.59999V6.59999ZM395.018 56.28H394.018C394.018 76.8022 383.426 94.8627 363.239 102.139L363.578 103.08L363.917 104.021C385.011 96.4173 396.018 77.5178 396.018 56.28H395.018ZM363.578 103.08L362.737 103.621L402.577 165.541L403.418 165L404.259 164.459L364.419 102.539L363.578 103.08ZM403.418 165V164H368.618V165V166H403.418V165ZM302.618 35.64H301.618V78.6H302.618H303.618V35.64H302.618ZM302.618 78.6V79.6H341.738V78.6V77.6H302.618V78.6ZM341.738 78.6V79.6C350.358 79.6 356.471 76.883 360.42 72.5211C364.351 68.1777 366.018 62.3321 366.018 56.28H365.018H364.018C364.018 61.9879 362.446 67.3022 358.937 71.1789C355.445 75.037 349.919 77.6 341.738 77.6V78.6ZM365.018 56.28H366.018C366.018 51.034 364.332 45.6097 360.402 41.4898C356.459 37.3559 350.357 34.64 341.738 34.64V35.64V36.64C349.919 36.64 355.458 39.2041 358.955 42.8702C362.465 46.5503 364.018 51.446 364.018 56.28H365.018ZM341.738 35.64V34.64H302.618V35.64V36.64H341.738V35.64ZM527.995 6.59999H528.995V5.59999H527.995V6.59999ZM527.995 35.64V36.64H528.995V35.64H527.995ZM480.475 35.64V34.64H479.475V35.64H480.475ZM480.475 165V166H481.475V165H480.475ZM450.475 165H449.475V166H450.475V165ZM450.475 35.64H451.475V34.64H450.475V35.64ZM402.715 35.64H401.715V36.64H402.715V35.64ZM402.715 6.59999V5.59999H401.715V6.59999H402.715ZM527.995 6.59999H526.995V35.64H527.995H528.995V6.59999H527.995ZM527.995 35.64V34.64H480.475V35.64V36.64H527.995V35.64ZM480.475 35.64H479.475V165H480.475H481.475V35.64H480.475ZM480.475 165V164H450.475V165V166H480.475V165ZM450.475 165H451.475V35.64H450.475H449.475V165H450.475ZM450.475 35.64V34.64H402.715V35.64V36.64H450.475V35.64ZM402.715 35.64H403.715V6.59999H402.715H401.715V35.64H402.715ZM402.715 6.59999V7.59999H527.995V6.59999V5.59999H402.715V6.59999ZM570.584 6.59999H571.584V5.59999H570.584V6.59999ZM570.584 165V166H571.584V165H570.584ZM540.584 165H539.584V166H540.584V165ZM540.584 6.59999V5.59999H539.584V6.59999H540.584ZM570.584 6.59999H569.584V165H570.584H571.584V6.59999H570.584ZM570.584 165V164H540.584V165V166H570.584V165ZM540.584 165H541.584V6.59999H540.584H539.584V165H540.584ZM540.584 6.59999V7.59999H570.584V6.59999V5.59999H540.584V6.59999ZM689.584 6.59999V5.59999H688.584V6.59999H689.584ZM718.624 6.59999H719.624V5.59999H718.624V6.59999ZM718.624 165V166H719.624V165H718.624ZM698.464 165L697.669 165.606L697.969 166H698.464V165ZM622.864 65.64L623.66 65.0345L621.864 62.6742V65.64H622.864ZM622.864 165V166H623.864V165H622.864ZM593.824 165H592.824V166H593.824V165ZM593.824 6.59999V5.59999H592.824V6.59999H593.824ZM614.464 6.59999L615.262 5.99692L614.962 5.59999H614.464V6.59999ZM689.584 105.96L688.787 106.563L690.584 108.941V105.96H689.584ZM689.584 6.59999V7.59999H718.624V6.59999V5.59999H689.584V6.59999ZM718.624 6.59999H717.624V165H718.624H719.624V6.59999H718.624ZM718.624 165V164H698.464V165V166H718.624V165ZM698.464 165L699.26 164.394L623.66 65.0345L622.864 65.64L622.069 66.2455L697.669 165.606L698.464 165ZM622.864 65.64H621.864V165H622.864H623.864V65.64H622.864ZM622.864 165V164H593.824V165V166H622.864V165ZM593.824 165H594.824V6.59999H593.824H592.824V165H593.824ZM593.824 6.59999V7.59999H614.464V6.59999V5.59999H593.824V6.59999ZM614.464 6.59999L613.667 7.20307L688.787 106.563L689.584 105.96L690.382 105.357L615.262 5.99692L614.464 6.59999ZM689.584 105.96H690.584V6.59999H689.584H688.584V105.96H689.584ZM771.753 135.96H770.753V136.96H771.753V135.96ZM849.992 135.96H850.992V134.96H849.992V135.96ZM849.992 165V166H850.992V165H849.992ZM741.753 165H740.753V166H741.753V165ZM741.753 6.59999V5.59999H740.753V6.59999H741.753ZM847.832 6.59999H848.832V5.59999H847.832V6.59999ZM847.832 35.64V36.64H848.832V35.64H847.832ZM771.753 35.64V34.64H770.753V35.64H771.753ZM771.753 71.4H770.753V72.4H771.753V71.4ZM840.872 71.4H841.872V70.4H840.872V71.4ZM840.872 98.52V99.52H841.872V98.52H840.872ZM771.753 98.52V97.52H770.753V98.52H771.753ZM771.753 135.96V136.96H849.992V135.96V134.96H771.753V135.96ZM849.992 135.96H848.992V165H849.992H850.992V135.96H849.992ZM849.992 165V164H741.753V165V166H849.992V165ZM741.753 165H742.753V6.59999H741.753H740.753V165H741.753ZM741.753 6.59999V7.59999H847.832V6.59999V5.59999H741.753V6.59999ZM847.832 6.59999H846.832V35.64H847.832H848.832V6.59999H847.832ZM847.832 35.64V34.64H771.753V35.64V36.64H847.832V35.64ZM771.753 35.64H770.753V71.4H771.753H772.753V35.64H771.753ZM771.753 71.4V72.4H840.872V71.4V70.4H771.753V71.4ZM840.872 71.4H839.872V98.52H840.872H841.872V71.4H840.872ZM840.872 98.52V97.52H771.753V98.52V99.52H840.872V98.52ZM771.753 98.52H770.753V135.96H771.753H772.753V98.52H771.753Z" fill="white" mask="url(#path-1-outside-1_6_46085)"/>
</g>
</svg>
