<svg width="21" height="21" viewBox="0 0 21 21" fill="none" xmlns="http://www.w3.org/2000/svg">
<g clip-path="url(#clip0_19_13479)">
<path d="M10.4999 2.84375C10.7167 2.84399 10.9253 2.92702 11.0829 3.07586C11.2406 3.22471 11.3355 3.42814 11.3482 3.64459C11.3609 3.86104 11.2905 4.07418 11.1513 4.24045C11.0121 4.40672 10.8147 4.51357 10.5994 4.53918L10.4999 4.54514H6.24642C6.03806 4.54517 5.83695 4.62166 5.68124 4.76012C5.52553 4.89858 5.42606 5.08937 5.40168 5.2963L5.39572 5.39583V15.6042C5.39575 15.8125 5.47225 16.0136 5.61071 16.1693C5.74917 16.3251 5.93996 16.4245 6.14689 16.4489L6.24642 16.4549H10.0745C10.2914 16.4551 10.4999 16.5381 10.6576 16.687C10.8152 16.8358 10.9101 17.0392 10.9228 17.2557C10.9355 17.4722 10.8651 17.6853 10.726 17.8516C10.5868 18.0178 10.3894 18.1247 10.1741 18.1503L10.0745 18.1562H6.24642C5.59546 18.1563 4.96909 17.9076 4.49547 17.461C4.02185 17.0144 3.73678 16.4037 3.69859 15.7539L3.69434 15.6042V5.39583C3.6943 4.74487 3.94302 4.1185 4.38959 3.64488C4.83617 3.17126 5.44686 2.88619 6.0967 2.848L6.24642 2.84375H10.4999ZM15.3548 7.49194L17.7606 9.89856C17.92 10.0581 18.0096 10.2744 18.0096 10.5C18.0096 10.7256 17.92 10.9419 17.7606 11.1014L15.3548 13.5081C15.1952 13.6676 14.9787 13.7571 14.7531 13.7571C14.5274 13.757 14.311 13.6673 14.1515 13.5076C13.992 13.348 13.9024 13.1316 13.9025 12.9059C13.9026 12.6802 13.9923 12.4638 14.1519 12.3043L15.1056 11.3507H10.4999C10.2743 11.3507 10.0579 11.2611 9.89836 11.1015C9.73882 10.942 9.6492 10.7256 9.6492 10.5C9.6492 10.2744 9.73882 10.058 9.89836 9.89847C10.0579 9.73893 10.2743 9.64931 10.4999 9.64931H15.1056L14.1519 8.69568C13.9923 8.53616 13.9026 8.31978 13.9025 8.09411C13.9024 7.86845 13.992 7.65199 14.1515 7.49237C14.311 7.33275 14.5274 7.24302 14.7531 7.24294C14.9787 7.24286 15.1952 7.33243 15.3548 7.49194Z" fill="#817DA4"/>
</g>
<defs>
<clipPath id="clip0_19_13479">
<rect width="20.4167" height="20.4167" fill="white" transform="translate(0.291992 0.291748)"/>
</clipPath>
</defs>
</svg>
