<svg width="20" height="16" viewBox="0 0 20 16" fill="none" xmlns="http://www.w3.org/2000/svg">
  <path d="M10 4C12.21 4 14 5.79 14 8C14 10.21 12.21 12 10 12C7.79 12 6 10.21 6 8C6 5.79 7.79 4 10 4ZM10 10C11.1 10 12 9.1 12 8C12 6.9 11.1 6 10 6C8.9 6 8 6.9 8 8C8 9.1 8.9 10 10 10Z" fill="#8A8A8A"/>
  <path d="M10 0C5.58 0 1.68 2.89 0.34 7.07C0.11 7.68 0.11 8.32 0.34 8.93C1.68 13.11 5.58 16 10 16C14.42 16 18.32 13.11 19.66 8.93C19.89 8.32 19.89 7.68 19.66 7.07C18.32 2.89 14.42 0 10 0ZM10 14C6.69 14 3.68 12.11 2.34 8C3.68 3.89 6.69 2 10 2C13.31 2 16.32 3.89 17.66 8C16.32 12.11 13.31 14 10 14Z" fill="#8A8A8A"/>
</svg> 