<svg width="20" height="20" viewBox="0 0 20 20" fill="none" xmlns="http://www.w3.org/2000/svg">
<path d="M8.33366 13.3335H11.667C12.1253 13.3335 12.5003 12.9585 12.5003 12.5002V8.33355H13.8253C14.567 8.33355 14.942 7.43355 14.417 6.90855L10.592 3.08355C10.5149 3.00629 10.4233 2.945 10.3225 2.90319C10.2217 2.86137 10.1136 2.83984 10.0045 2.83984C9.89535 2.83984 9.78728 2.86137 9.68647 2.90319C9.58566 2.945 9.49409 3.00629 9.41699 3.08355L5.59199 6.90855C5.06699 7.43355 5.43366 8.33355 6.17533 8.33355H7.50033V12.5002C7.50033 12.9585 7.87533 13.3335 8.33366 13.3335ZM5.00033 15.0002H15.0003C15.4587 15.0002 15.8337 15.3752 15.8337 15.8335C15.8337 16.2919 15.4587 16.6669 15.0003 16.6669H5.00033C4.54199 16.6669 4.16699 16.2919 4.16699 15.8335C4.16699 15.3752 4.54199 15.0002 5.00033 15.0002Z" fill="#817DA4"/>
</svg>
