<svg width="32" height="32" viewBox="0 0 32 32" fill="none" xmlns="http://www.w3.org/2000/svg">
<path d="M5.92993 16.703L4.32842 14.1935H3.17273V17.7899H4.31976V15.2846L5.92559 17.7941H7.07262V14.1935H5.92993V16.703ZM15.0326 15.4063V15.0496H14.4266V14.567H13.3099V15.0496H12.7039V15.4063H13.3099V17.7941H14.4266V15.4063H15.0326ZM7.71324 17.7941H8.82999V15.4021H7.71324V17.7941ZM7.71324 14.9279H8.82999V14.1935H7.71324V14.9279ZM27.2691 15.2384C26.3687 15.2384 25.6372 15.8385 25.6372 16.5813C25.6372 17.3241 26.3687 17.9242 27.2691 17.9242C28.1694 17.9242 28.9009 17.3241 28.9009 16.5813C28.9009 15.8385 28.1737 15.2384 27.2691 15.2384ZM27.7192 17.0849C27.7192 17.4668 27.4855 17.6221 27.2647 17.6221C27.0396 17.6221 26.8059 17.4668 26.8059 17.0849C26.8059 16.938 26.8059 16.5687 26.8059 16.5687C26.8059 16.5687 26.8059 16.2162 26.8059 16.0693C26.8059 15.6917 27.0396 15.5322 27.2604 15.5322C27.4811 15.5322 27.7149 15.6875 27.7149 16.0693C27.7149 16.2162 27.7149 16.4806 27.7149 16.5771C27.7192 16.5855 27.7192 16.9422 27.7192 17.0849ZM24.1742 15.5196C23.9968 15.4231 23.8063 15.3308 23.5423 15.3056C22.7372 15.2384 22.1226 15.9267 22.1226 16.5603C22.1226 17.3912 22.7848 17.7018 22.8843 17.7479C23.2609 17.9158 23.7414 17.9158 24.1699 17.6598C24.1699 17.6808 24.1699 17.7983 24.1699 17.7983H25.2736V14.1935H24.1742C24.1742 14.1935 24.1742 14.9657 24.1742 15.5196ZM24.1829 16.5855C24.1829 16.5855 24.1829 16.8583 24.1829 17.0093C24.1829 17.3786 23.9189 17.4752 23.7457 17.4752C23.5682 17.4752 23.3085 17.3786 23.3085 17.0093C23.3085 16.8834 23.3085 16.5855 23.3085 16.5855C23.3085 16.5855 23.3085 16.2834 23.3085 16.1575C23.3085 15.7882 23.5682 15.6917 23.7457 15.6917C23.9189 15.6917 24.1829 15.784 24.1829 16.1575C24.1829 16.2834 24.1829 16.5855 24.1829 16.5855ZM11.4443 15.2888C11.0764 15.2972 10.7691 15.4525 10.5527 15.6497C10.5527 15.5909 10.5527 15.3979 10.5527 15.3979H9.44463V17.7899H10.5527C10.5527 17.7899 10.5527 16.3211 10.5527 16.2204C10.5527 16.0106 10.7777 15.7798 11.0807 15.7798C11.3837 15.7798 11.5915 16.0106 11.5915 16.2204C11.5915 16.3715 11.5915 17.7899 11.5915 17.7899H12.6996C12.6996 17.7899 12.6996 16.6569 12.6996 16.489C12.7083 15.5448 11.8599 15.2804 11.4443 15.2888ZM20.5124 15.2888C20.1445 15.2972 19.8371 15.4525 19.6207 15.6497C19.6207 15.5909 19.6207 15.3979 19.6207 15.3979H18.5127V17.7899H19.6207C19.6207 17.7899 19.6207 16.3211 19.6207 16.2204C19.6207 16.0106 19.8458 15.7798 20.1488 15.7798C20.4518 15.7798 20.6595 16.0106 20.6595 16.2204C20.6595 16.3715 20.6595 17.7899 20.6595 17.7899H21.7676C21.7676 17.7899 21.7676 16.6569 21.7676 16.489C21.7763 15.5448 20.9279 15.2804 20.5124 15.2888ZM18.175 16.6065C18.175 15.8637 17.4349 15.251 16.5302 15.251C15.6213 15.251 14.8854 15.8511 14.8854 16.5939C14.8854 17.3367 15.6213 17.9368 16.5302 17.9368C17.2834 17.9368 17.9197 17.5213 18.1144 16.9548H17.002C17.002 16.9548 17.002 16.9674 17.002 17.1017C17.002 17.5381 16.7034 17.6346 16.5389 17.6346C16.3744 17.6346 16.0714 17.5381 16.0714 17.1017C16.0714 16.9716 16.0714 16.6065 16.0714 16.6065H18.175ZM16.1493 15.7672C16.2359 15.6203 16.396 15.549 16.5432 15.549C16.6904 15.549 16.8505 15.6203 16.9371 15.7672C17.0064 15.8889 17.0107 16.0274 17.0107 16.2372H16.0801C16.0714 16.0232 16.0757 15.8847 16.1493 15.7672ZM29.3467 14.6383C29.3467 14.5208 29.2558 14.4621 29.0783 14.4621H28.8273V15.0748H28.9788V14.823H29.0524L29.1735 15.0748H29.3467L29.2038 14.802C29.2948 14.781 29.3467 14.7223 29.3467 14.6383ZM29.0567 14.7349H28.9831V14.5586H29.0524C29.1433 14.5586 29.1909 14.588 29.1909 14.6509C29.1865 14.7097 29.1433 14.7349 29.0567 14.7349ZM29.061 14.2229C28.745 14.2229 28.4896 14.4705 28.4896 14.7768C28.4896 15.0832 28.745 15.3308 29.061 15.3308C29.377 15.3308 29.6323 15.0832 29.6323 14.7768C29.6323 14.4705 29.377 14.2229 29.061 14.2229ZM29.061 15.2259C28.8056 15.2259 28.5979 15.0244 28.5979 14.7768C28.5979 14.5292 28.8056 14.3278 29.061 14.3278C29.3164 14.3278 29.5242 14.5292 29.5242 14.7768C29.5242 15.0244 29.3164 15.2259 29.061 15.2259ZM27.8187 12.1792H4.18125C1.67943 12.175 0 13.9166 0 16.0064C0 18.0962 1.6751 19.821 4.18558 19.821H27.8144C30.3249 19.821 32 18.0962 32 16.0064C32 13.9166 30.3162 12.175 27.8187 12.1792ZM27.8058 18.8852H4.19424C2.19883 18.8936 0.98688 17.5926 0.98688 16.0022C0.98688 14.4117 2.20749 13.1234 4.19424 13.1192H27.8058C29.7925 13.1234 31.0131 14.4117 31.0131 16.0022C31.0088 17.5926 29.8012 18.8936 27.8058 18.8852Z" fill="white"/>
</svg>
