<svg width="20" height="24" viewBox="0 0 20 24" fill="none" xmlns="http://www.w3.org/2000/svg">
<g clip-path="url(#clip0_22_682)">
<path d="M13.4751 4.19325C14.2873 3.20105 14.6946 2.12907 14.6946 0.980987C14.6946 0.828714 14.6877 0.675206 14.6713 0.521729C14.1056 0.551939 13.504 0.728387 12.8681 1.04744C12.2309 1.37134 11.7054 1.77736 11.2922 2.26566C10.4645 3.23009 9.99846 4.40962 9.99846 5.51179C9.99846 5.66411 10.008 5.80907 10.0243 5.94681C11.3098 6.05436 12.4952 5.37278 13.4751 4.19325ZM17.7985 20.6309C18.2609 19.9521 18.6602 19.2139 18.9973 18.4118C19.1364 18.0718 19.2671 17.7175 19.391 17.3476C18.8198 17.101 18.3064 16.7539 17.8467 16.3048C16.8323 15.3369 16.3161 14.1179 16.301 12.6532C16.2845 10.7727 17.1145 9.30673 18.7923 8.26011C17.8549 6.88843 16.4455 6.12706 14.5694 5.97119C13.8771 5.91068 13.0319 6.06429 12.0306 6.43527C10.9717 6.83529 10.3471 7.03594 10.1628 7.03594C9.91629 7.03594 9.35403 6.86434 8.47834 6.52595C7.60019 6.1887 6.89354 6.0171 6.35467 6.0171C5.36984 6.03396 4.45535 6.29753 3.60899 6.81475C2.76263 7.33196 2.0864 8.0365 1.57809 8.92966C0.931306 10.0416 0.608398 11.3685 0.608398 12.907C0.608398 14.25 0.847895 15.6372 1.32565 17.0699C1.77175 18.3962 2.34117 19.5596 3.03379 20.5629C3.67932 21.5023 4.2182 22.1656 4.64902 22.5524C5.32401 23.1985 6.00024 23.506 6.67868 23.4763C7.12477 23.4607 7.70825 23.3034 8.43251 23.0016C9.15569 22.7012 9.83178 22.5524 10.4622 22.5524C11.0632 22.5524 11.7206 22.7012 12.436 23.0016C13.1489 23.3034 13.7614 23.4522 14.2693 23.4522C14.9768 23.4352 15.6375 23.1362 16.2541 22.5524C16.652 22.1968 17.1681 21.5562 17.7985 20.6309Z" fill="white"/>
</g>
<defs>
<clipPath id="clip0_22_682">
<rect width="20" height="24" fill="white"/>
</clipPath>
</defs>
</svg>
