<svg width="24" height="24" viewBox="0 0 24 24" fill="none" xmlns="http://www.w3.org/2000/svg">
<g clip-path="url(#clip0_22_674)">
<path d="M10.8037 23.8057C8.9608 23.6306 7.09513 22.9742 5.49249 21.9369C4.14955 21.0682 3.84648 20.7105 3.84648 19.9976C3.84648 18.5654 5.4341 16.0565 8.15058 13.1971C9.69288 11.5727 11.8416 9.66969 12.0738 9.72098C12.5259 9.8211 16.1376 13.3157 17.49 14.961C19.6282 17.5618 20.6108 19.692 20.1114 20.6415C19.7319 21.3633 17.3763 22.7742 15.6461 23.3162C14.2197 23.7629 12.3465 23.9521 10.8037 23.8057ZM2.03253 18.5085C0.916466 16.8102 0.352595 15.1384 0.0806695 12.7202C-0.00941627 11.9218 0.0222806 11.4654 0.284475 9.82606C0.610619 7.7852 1.78312 5.42166 3.1928 3.96824C3.79282 3.35046 3.8462 3.33392 4.57801 3.57937C5.46496 3.87723 6.41309 4.52699 7.88394 5.84638L8.74309 6.61694L8.2732 7.18783C6.09668 9.8382 3.79949 13.5972 2.93478 15.9222C2.46488 17.1853 2.27582 18.4539 2.47879 18.9821C2.61503 19.339 2.48991 19.206 2.03114 18.5094L2.03253 18.5085ZM21.6215 18.7973C21.7318 18.2634 21.5923 17.2832 21.2656 16.2942C20.558 14.1527 18.1921 10.1689 16.0197 7.46004L15.3358 6.60729L16.0759 5.93353C17.0418 5.05376 17.7125 4.52699 18.4365 4.07938C19.0073 3.72637 19.8234 3.4139 20.1743 3.4139C20.3903 3.4139 21.1519 4.1999 21.7663 5.05486C22.7183 6.37866 23.4185 7.98653 23.7732 9.65783C24.0026 10.7389 24.0218 13.0501 23.8102 14.1284C23.6351 15.0132 23.268 16.1599 22.9121 16.9379C22.6424 17.5207 21.9779 18.6528 21.686 19.0212C21.5358 19.2107 21.5358 19.2104 21.6192 18.8017L21.6215 18.7973ZM11.0011 3.00958C9.99845 2.50488 8.45198 1.96295 7.59783 1.81678C7.29866 1.76576 6.78789 1.7368 6.46342 1.75335C5.7583 1.78865 5.78972 1.75226 6.92024 1.22245C7.86002 0.782011 8.6441 0.523043 9.70901 0.301306C10.906 0.051714 13.1567 0.0489559 14.3348 0.295239C15.6068 0.561379 17.1052 1.11434 17.9494 1.63007L18.2007 1.78286L17.6252 1.75418C16.4807 1.69682 14.813 2.15546 13.0224 3.01924C12.4825 3.28014 12.0131 3.48809 11.9787 3.48257C11.9445 3.47595 11.5043 3.26332 11 3.00959L11.0011 3.00958Z" fill="white"/>
</g>
<defs>
<clipPath id="clip0_22_674">
<rect width="24" height="24" fill="white"/>
</clipPath>
</defs>
</svg>
