<svg width="17" height="17" viewBox="0 0 17 17" fill="none" xmlns="http://www.w3.org/2000/svg">
<path fill-rule="evenodd" clip-rule="evenodd" d="M14.259 2.23838C13.8606 1.84001 13.3201 1.61621 12.7567 1.61621C12.1932 1.61621 11.6528 1.84001 11.2543 2.23838L10.7535 2.73988L14.2598 6.24613L14.7598 5.74534C14.9572 5.54801 15.1138 5.31374 15.2206 5.0559C15.3274 4.79806 15.3824 4.5217 15.3824 4.24261C15.3824 3.96352 15.3274 3.68717 15.2206 3.42933C15.1138 3.17149 14.9572 2.93721 14.7598 2.73988L14.259 2.23838ZM13.2575 7.24772L9.75122 3.74147L3.31247 10.1809C3.17157 10.3218 3.07314 10.4996 3.02842 10.6938L2.29955 13.8494C2.27239 13.9665 2.27551 14.0887 2.3086 14.2043C2.3417 14.3199 2.40368 14.4252 2.48872 14.5102C2.57375 14.5953 2.67904 14.6572 2.79465 14.6903C2.91026 14.7234 3.0324 14.7265 3.14955 14.6994L6.30588 13.9712C6.49983 13.9264 6.67728 13.828 6.81801 13.6872L13.2575 7.24772Z" fill="#817DA4"/>
</svg>
