<svg width="18" height="19" viewBox="0 0 18 19" fill="none" xmlns="http://www.w3.org/2000/svg">
<path fill-rule="evenodd" clip-rule="evenodd" d="M16.1595 4.00778C16.3704 4.22831 16.4889 4.52736 16.4889 4.83919C16.4889 5.15101 16.3704 5.45006 16.1595 5.67059L7.72727 14.4848C7.61584 14.6013 7.48354 14.6937 7.33793 14.7568C7.19232 14.8198 7.03625 14.8523 6.87864 14.8523C6.72104 14.8523 6.56497 14.8198 6.41936 14.7568C6.27375 14.6937 6.14145 14.6013 6.03002 14.4848L1.84052 10.1063C1.73307 9.99782 1.64737 9.86806 1.58841 9.72459C1.52945 9.58112 1.49841 9.42681 1.49711 9.27067C1.49581 9.11452 1.52428 8.95967 1.58085 8.81515C1.63741 8.67063 1.72095 8.53933 1.82658 8.42892C1.9322 8.31851 2.05781 8.23119 2.19607 8.17206C2.33433 8.11293 2.48247 8.08318 2.63185 8.08453C2.78122 8.08589 2.92885 8.11833 3.0661 8.17996C3.20335 8.24159 3.32749 8.33118 3.43127 8.4435L6.87827 12.0466L14.568 4.00778C14.6725 3.8985 14.7965 3.81182 14.9331 3.75267C15.0696 3.69353 15.216 3.66309 15.3638 3.66309C15.5116 3.66309 15.6579 3.69353 15.7945 3.75267C15.931 3.81182 16.055 3.8985 16.1595 4.00778Z" fill="#5600FF"/>
</svg>
