<svg width="24" height="24" viewBox="0 0 24 24" fill="none" xmlns="http://www.w3.org/2000/svg">
<path d="M14.9751 3.01903L15.9351 1.28703C15.9474 1.26483 15.9552 1.24044 15.958 1.21524C15.9609 1.19003 15.9588 1.16452 15.9517 1.14014C15.9447 1.11577 15.933 1.09301 15.9172 1.07317C15.9014 1.05334 15.8818 1.03681 15.8596 1.02453C15.8374 1.01225 15.813 1.00446 15.7878 1.00161C15.7626 0.998761 15.7371 1.0009 15.7127 1.00791C15.6884 1.01492 15.6656 1.02667 15.6458 1.04247C15.6259 1.05828 15.6094 1.07783 15.5971 1.10003L14.6271 2.85003C13.7991 2.48692 12.9048 2.29944 12.0006 2.29944C11.0965 2.29944 10.2022 2.48692 9.37413 2.85003L8.40413 1.10003C8.37933 1.05494 8.33764 1.02155 8.28822 1.00721C8.2388 0.992859 8.18571 0.99873 8.14063 1.02353C8.09554 1.04833 8.06215 1.09002 8.0478 1.13943C8.03346 1.18885 8.03933 1.24194 8.06413 1.28703L9.02413 3.01903C8.111 3.46988 7.33952 4.16328 6.79415 5.0233C6.24879 5.88333 5.95056 6.87683 5.93213 7.89503H18.0691C18.0505 6.87662 17.752 5.88297 17.2062 5.02293C16.6605 4.16288 15.8886 3.4696 14.9751 3.01903ZM9.20013 5.67403C9.09981 5.67403 9.00175 5.64427 8.91835 5.58851C8.83495 5.53276 8.76997 5.45352 8.73162 5.36082C8.69328 5.26812 8.6833 5.16612 8.70294 5.06775C8.72259 4.96937 8.77097 4.87904 8.84198 4.80817C8.91298 4.73731 9.00342 4.6891 9.10183 4.66965C9.20024 4.6502 9.30222 4.66038 9.39484 4.69891C9.48746 4.73744 9.56658 4.80258 9.62217 4.88608C9.67776 4.96959 9.70732 5.06771 9.70713 5.16803C9.70686 5.30232 9.65333 5.43102 9.55828 5.52589C9.46322 5.62075 9.33442 5.67403 9.20013 5.67403ZM14.8021 5.67403C14.7018 5.67403 14.6037 5.64427 14.5203 5.58851C14.437 5.53276 14.372 5.45352 14.3336 5.36082C14.2953 5.26812 14.2853 5.16612 14.3049 5.06775C14.3246 4.96937 14.373 4.87904 14.444 4.80817C14.515 4.73731 14.6054 4.6891 14.7038 4.66965C14.8022 4.6502 14.9042 4.66038 14.9968 4.69891C15.0895 4.73744 15.1686 4.80258 15.2242 4.88608C15.2798 4.96959 15.3093 5.06771 15.3091 5.16803C15.3089 5.30232 15.2553 5.43102 15.1603 5.52589C15.0652 5.62075 14.9364 5.67403 14.8021 5.67403ZM5.93013 17.171C5.92986 17.3641 5.96771 17.5553 6.04151 17.7337C6.1153 17.9121 6.22358 18.0742 6.36015 18.2107C6.49672 18.3472 6.65888 18.4554 6.83734 18.529C7.01581 18.6027 7.20706 18.6404 7.40013 18.64H8.37313V21.64C8.37313 22.0009 8.51646 22.3469 8.77161 22.602C9.02675 22.8572 9.3728 23.0005 9.73362 23.0005C10.0945 23.0005 10.4405 22.8572 10.6956 22.602C10.9508 22.3469 11.0941 22.0009 11.0941 21.64V18.64H12.9081V21.64C12.9081 22.0007 13.0514 22.3466 13.3065 22.6017C13.5615 22.8567 13.9074 23 14.2681 23C14.6288 23 14.9747 22.8567 15.2298 22.6017C15.4848 22.3466 15.6281 22.0007 15.6281 21.64V18.64H16.6021C16.7949 18.6402 16.9859 18.6023 17.1641 18.5286C17.3422 18.4548 17.5041 18.3467 17.6405 18.2104C17.7768 18.074 17.8849 17.9121 17.9586 17.734C18.0324 17.5558 18.0703 17.3648 18.0701 17.172V8.37503H5.93013V17.171ZM4.06313 8.14103C3.88444 8.14103 3.70751 8.17624 3.54244 8.24465C3.37738 8.31306 3.22741 8.41332 3.10111 8.53972C2.97481 8.66611 2.87465 8.81615 2.80636 8.98127C2.73807 9.14639 2.70299 9.32335 2.70313 9.50203V15.171C2.70313 15.3496 2.7383 15.5265 2.80665 15.6915C2.875 15.8565 2.97517 16.0064 3.10146 16.1327C3.22775 16.259 3.37767 16.3592 3.54268 16.4275C3.70768 16.4959 3.88453 16.531 4.06313 16.531C4.24172 16.531 4.41857 16.4959 4.58357 16.4275C4.74858 16.3592 4.8985 16.259 5.02479 16.1327C5.15108 16.0064 5.25126 15.8565 5.3196 15.6915C5.38795 15.5265 5.42313 15.3496 5.42313 15.171V9.50203C5.42313 9.32343 5.38795 9.14658 5.3196 8.98158C5.25126 8.81658 5.15108 8.66665 5.02479 8.54036C4.8985 8.41408 4.74858 8.3139 4.58357 8.24555C4.41857 8.17721 4.24172 8.14203 4.06313 8.14203M19.9351 8.14203C19.7564 8.14203 19.5795 8.17724 19.4144 8.24565C19.2494 8.31406 19.0994 8.41432 18.9731 8.54072C18.8468 8.66711 18.7466 8.81715 18.6784 8.98227C18.6101 9.14739 18.575 9.32435 18.5751 9.50303V15.172C18.5751 15.3506 18.6103 15.5275 18.6786 15.6925C18.747 15.8575 18.8472 16.0074 18.9735 16.1337C19.0997 16.26 19.2497 16.3602 19.4147 16.4285C19.5797 16.4969 19.7565 16.532 19.9351 16.532C20.1137 16.532 20.2906 16.4969 20.4556 16.4285C20.6206 16.3602 20.7705 16.26 20.8968 16.1337C21.0231 16.0074 21.1233 15.8575 21.1916 15.6925C21.2599 15.5275 21.2951 15.3506 21.2951 15.172V9.50203C21.2951 9.14133 21.1518 8.79541 20.8968 8.54036C20.6417 8.28531 20.2958 8.14203 19.9351 8.14203Z" fill="white"/>
</svg>
