<svg width="48" height="48" viewBox="0 0 48 48" fill="none" xmlns="http://www.w3.org/2000/svg">
<rect width="48" height="48" rx="10" fill="#2A255C"/>
<g clip-path="url(#clip0_16_2510)">
<path d="M24.0003 13.5C24.2977 13.5003 24.5837 13.6142 24.7999 13.8183C25.0161 14.0225 25.1463 14.3014 25.1637 14.5983C25.1811 14.8951 25.0845 15.1874 24.8937 15.4155C24.7028 15.6435 24.4321 15.79 24.1368 15.8252L24.0003 15.8333H18.167C17.8812 15.8334 17.6054 15.9383 17.3919 16.1282C17.1784 16.3181 17.0419 16.5797 17.0085 16.8635L17.0003 17V31C17.0004 31.2858 17.1053 31.5616 17.2952 31.7751C17.485 31.9886 17.7467 32.1251 18.0305 32.1585L18.167 32.1667H23.417C23.7144 32.167 24.0004 32.2809 24.2166 32.485C24.4328 32.6891 24.5629 32.9681 24.5804 33.265C24.5978 33.5618 24.5012 33.8541 24.3104 34.0821C24.1195 34.3102 23.8488 34.4567 23.5535 34.4918L23.417 34.5H18.167C17.2742 34.5 16.4152 34.159 15.7657 33.5465C15.1162 32.934 14.7252 32.0965 14.6728 31.2053L14.667 31V17C14.6669 16.1073 15.008 15.2482 15.6205 14.5987C16.2329 13.9492 17.0705 13.5582 17.9617 13.5058L18.167 13.5H24.0003ZM30.6585 19.8747L33.9578 23.1752C34.1765 23.3939 34.2994 23.6906 34.2994 24C34.2994 24.3094 34.1765 24.6061 33.9578 24.8248L30.6585 28.1253C30.4396 28.3441 30.1427 28.4669 29.8332 28.4668C29.5238 28.4667 29.227 28.3437 29.0082 28.1247C28.7895 27.9058 28.6666 27.609 28.6668 27.2995C28.6669 26.99 28.7899 26.6933 29.0088 26.4745L30.3167 25.1667H24.0003C23.6909 25.1667 23.3942 25.0437 23.1754 24.825C22.9566 24.6062 22.8337 24.3094 22.8337 24C22.8337 23.6906 22.9566 23.3938 23.1754 23.175C23.3942 22.9562 23.6909 22.8333 24.0003 22.8333H30.3167L29.0088 21.5255C28.7899 21.3067 28.6669 21.01 28.6668 20.7005C28.6666 20.391 28.7895 20.0942 29.0082 19.8753C29.227 19.6563 29.5238 19.5333 29.8332 19.5332C30.1427 19.5331 30.4396 19.6559 30.6585 19.8747Z" fill="#817DA4"/>
</g>
<defs>
<clipPath id="clip0_16_2510">
<rect width="28" height="28" fill="white" transform="translate(10 10)"/>
</clipPath>
</defs>
</svg>
