<svg width="24" height="24" viewBox="0 0 24 24" fill="none" xmlns="http://www.w3.org/2000/svg">
<path d="M20 4C21.6569 4 23 5.34315 23 7V9H20C18.3431 9 17 10.3431 17 12C17 13.6569 18.3431 15 20 15H23V17C23 18.6569 21.6569 20 20 20H9.58301C9.8507 19.3874 10 18.7112 10 18C10 15.2386 7.76142 13 5 13C4.65756 13 4.32309 13.034 4 13.0996V7C4 5.34315 5.34315 4 7 4H20Z" fill="#2CFF28"/>
<path d="M5 14C7.20914 14 9 15.7909 9 18C9 20.2091 7.20914 22 5 22C2.79086 22 1 20.2091 1 18C1 15.7909 2.79086 14 5 14ZM5 15C4.88634 15 4.77764 15.0456 4.69727 15.126C4.61694 15.2063 4.57129 15.3151 4.57129 15.4287V17.5713H2.42871C2.31508 17.5713 2.20634 17.6169 2.12598 17.6973C2.0456 17.7776 2 17.8863 2 18C2 18.1137 2.0456 18.2224 2.12598 18.3027C2.20634 18.3831 2.31508 18.4287 2.42871 18.4287H4.57129V20.5713C4.57129 20.6849 4.61694 20.7937 4.69727 20.874C4.77764 20.9544 4.88634 21 5 21C5.11366 21 5.22236 20.9544 5.30273 20.874C5.38306 20.7937 5.42871 20.6849 5.42871 20.5713V18.4287H7.57129C7.68492 18.4287 7.79366 18.3831 7.87402 18.3027C7.9544 18.2224 8 18.1137 8 18C8 17.8863 7.9544 17.7776 7.87402 17.6973C7.79366 17.6169 7.68492 17.5713 7.57129 17.5713H5.42871V15.4287C5.42871 15.3151 5.38306 15.2063 5.30273 15.126C5.22236 15.0456 5.11366 15 5 15Z" fill="#2CFF28"/>
<path d="M18 12C18 10.8954 18.8954 10 20 10H23V14H20C18.8954 14 18 13.1046 18 12Z" fill="#2CFF28"/>
</svg>
