<svg width="16" height="15" viewBox="0 0 16 15" fill="none" xmlns="http://www.w3.org/2000/svg">
<path d="M14.6673 12.3147C14.9883 12.3149 15.297 12.4386 15.5293 12.6601C15.7616 12.8816 15.8998 13.184 15.9153 13.5047C15.9307 13.8253 15.8222 14.1396 15.6122 14.3824C15.4022 14.6253 15.1068 14.778 14.7873 14.8089L14.6673 14.8148H1.33398C1.01297 14.8146 0.704322 14.691 0.471996 14.4694C0.239669 14.2479 0.101474 13.9455 0.0860475 13.6248C0.0706206 13.3042 0.179144 12.9899 0.389131 12.7471C0.599117 12.5043 0.894468 12.3516 1.21398 12.3206L1.33398 12.3147H14.6673ZM14.6673 6.48135C14.9988 6.48135 15.3168 6.61305 15.5512 6.84747C15.7856 7.08189 15.9173 7.39984 15.9173 7.73136C15.9173 8.06289 15.7856 8.38083 15.5512 8.61526C15.3168 8.84968 14.9988 8.98138 14.6673 8.98138H1.33398C1.00246 8.98138 0.684521 8.84968 0.450101 8.61526C0.21568 8.38083 0.0839844 8.06289 0.0839844 7.73136C0.0839844 7.39984 0.21568 7.08189 0.450101 6.84747C0.684521 6.61305 1.00246 6.48135 1.33398 6.48135H14.6673ZM14.6673 0.647949C14.9988 0.647949 15.3168 0.779647 15.5512 1.01407C15.7856 1.24849 15.9173 1.56644 15.9173 1.89796C15.9173 2.22949 15.7856 2.54743 15.5512 2.78186C15.3168 3.01628 14.9988 3.14798 14.6673 3.14798H1.33398C1.00246 3.14798 0.684521 3.01628 0.450101 2.78186C0.21568 2.54743 0.0839844 2.22949 0.0839844 1.89796C0.0839844 1.56644 0.21568 1.24849 0.450101 1.01407C0.684521 0.779647 1.00246 0.647949 1.33398 0.647949H14.6673Z" fill="#817DA4"/>
</svg>
