<svg width="24" height="24" viewBox="0 0 24 24" fill="none" xmlns="http://www.w3.org/2000/svg">
<path d="M9.30483 3.47559C10.3061 3.65894 11.291 3.92198 12.2712 4.19557C12.8318 4.35493 13.3915 4.52101 13.9464 4.69669C14.8199 4.97028 15.6877 5.27939 16.4778 5.74114C16.833 5.95234 17.1719 6.19137 17.4627 6.48225C17.7776 6.78656 18.0358 7.14176 18.225 7.53439C18.5696 8.2419 18.6877 9.03196 18.7222 9.80955C18.7385 10.3164 18.7376 10.8271 18.6406 11.3282C18.5674 11.7676 18.4116 12.189 18.1818 12.5704C17.9733 12.9099 17.6793 13.1886 17.3293 13.3787C16.9872 13.5563 16.6058 13.6445 16.2205 13.635C15.6388 13.6408 15.0743 13.4594 14.5521 13.2203L14.5473 10.6591V7.63423C14.5466 7.47956 14.5315 7.32529 14.5022 7.17344C14.458 6.93728 14.3601 6.6992 14.171 6.53889C14.0417 6.432 13.8869 6.36054 13.7217 6.33153C13.6397 6.31731 13.5553 6.32539 13.4774 6.35495C13.3996 6.3845 13.3311 6.43443 13.2792 6.49953C13.1093 6.70784 13.0651 6.98432 13.0584 7.24352C13.0565 11.813 13.0584 16.3835 13.0565 20.954C11.8056 20.5642 10.5547 20.1745 9.30483 19.7828C9.30293 14.3474 9.30384 8.91196 9.30483 3.47559ZM17.9158 14.259C19.1379 14.2638 20.3676 14.4126 21.5378 14.7736C21.7673 14.8427 21.989 14.932 22.2185 15.003C22.6255 15.1499 23.0345 15.3266 23.3609 15.6155C23.5557 15.7912 23.7257 16.0283 23.7276 16.2981C23.7391 16.5189 23.6383 16.7301 23.4924 16.8923C23.2159 17.1966 22.8511 17.4059 22.4844 17.5883C22.0937 17.7841 21.6741 17.9109 21.2652 18.0597L13.7678 20.7073V18.6433C13.7707 18.6155 13.7553 18.5675 13.7947 18.5608L19.4988 16.5611C19.7561 16.467 20.0326 16.3979 20.2505 16.227C20.3398 16.1579 20.4271 16.0485 20.3839 15.9294C20.3379 15.8267 20.2294 15.7691 20.1286 15.7269C19.8435 15.6155 19.5334 15.5944 19.231 15.5858C18.7554 15.5826 18.2821 15.6538 17.8285 15.797C16.4749 16.2626 15.1223 16.7349 13.7678 17.2005V14.9829C14.7519 14.6534 15.7692 14.4325 16.8013 14.3243C17.1719 14.2821 17.5443 14.2725 17.9158 14.259ZM8.57333 13.3346L8.57424 14.2792V15.2238C8.57424 15.3093 8.57904 15.3947 8.56853 15.4802C7.27923 15.9285 5.99192 16.3864 4.70458 16.8386C4.52603 16.9048 4.34267 16.9797 4.2054 17.1141C4.14108 17.1765 4.08828 17.2696 4.1238 17.3598C4.16796 17.4654 4.2774 17.523 4.37915 17.5672C4.66235 17.6805 4.9705 17.6958 5.27193 17.7093C5.6082 17.7088 5.94359 17.675 6.27319 17.6085C6.49411 17.5612 6.71083 17.496 6.92118 17.4136C7.47123 17.2178 8.02133 17.02 8.57234 16.827C8.57622 17.3589 8.57333 17.8926 8.57424 18.4244C8.57234 18.531 8.57904 18.6385 8.56853 18.7441C6.52118 19.1295 4.40983 18.9942 2.42847 18.3505C1.99648 18.2267 1.56833 18.0625 1.20737 17.7937C1.00865 17.643 0.83106 17.453 0.74082 17.2197C0.70255 17.1206 0.684938 17.0147 0.689065 16.9085C0.693192 16.8024 0.718973 16.6982 0.76482 16.6024C0.85602 16.4123 1.01441 16.2616 1.18913 16.1445C1.59425 15.8699 2.03968 15.6606 2.49182 15.4734C2.88158 15.3102 3.28573 15.1835 3.68316 15.0414C5.31418 14.4741 6.9423 13.9 8.57333 13.3346Z" fill="white"/>
<path d="M22.0456 21.1018C21.5086 21.0828 21.1455 20.6697 21.1745 20.1347C21.202 19.6289 21.6191 19.2644 22.1391 19.2956C22.6742 19.3277 22.9993 19.7427 22.9809 20.237C22.961 20.767 22.5629 21.1199 22.0456 21.1018ZM22.8434 20.1988C22.8433 19.7598 22.5195 19.4325 22.0852 19.4323C21.6384 19.4321 21.3146 19.7557 21.316 20.2008C21.3174 20.6453 21.6411 20.9716 22.0805 20.9716C22.5186 20.9717 22.8435 20.6426 22.8434 20.1988Z" fill="white"/>
<path d="M22.2864 20.2039C22.367 20.2334 22.3991 20.3019 22.4225 20.3764C22.4544 20.4775 22.4839 20.5793 22.5175 20.6799C22.5284 20.7126 22.53 20.717 22.53 20.717L22.3352 20.7171C22.3352 20.7171 22.3334 20.7083 22.327 20.6842C22.304 20.5973 22.279 20.511 22.2548 20.4245C22.2232 20.3116 22.1841 20.2803 22.0666 20.2764C22.0267 20.2751 21.9106 20.2744 21.9106 20.2744L21.9118 20.7158L21.7236 20.7173C21.7236 20.7173 21.7243 20.2253 21.7243 20.0004C21.7243 19.9044 21.7236 19.6743 21.7236 19.6743C21.7236 19.6743 22.0535 19.6743 22.1998 19.6766C22.3365 19.6789 22.4318 19.7434 22.4584 19.8506C22.4934 19.9918 22.4567 20.1415 22.2929 20.194L22.2873 20.1958C22.2873 20.1958 22.2881 20.2013 22.2864 20.2039ZM21.911 19.9727C21.911 20.02 21.9108 20.1462 21.9108 20.1462C21.9108 20.1462 21.9127 20.1464 21.9363 20.1459C22.0101 20.1445 22.0842 20.151 22.1573 20.1365C22.2458 20.1189 22.2957 20.0533 22.2926 19.961C22.2897 19.8741 22.2403 19.8173 22.1549 19.8108C22.0844 19.8054 21.9107 19.805 21.9107 19.805V19.8396C21.9107 19.8396 21.911 19.9284 21.911 19.9727Z" fill="white"/>
</svg>
