<svg width="25" height="25" viewBox="0 0 25 25" fill="none" xmlns="http://www.w3.org/2000/svg">
<path d="M20.5886 5.41187C21.1409 5.41187 21.5886 4.96415 21.5886 4.41187C21.5886 3.85958 21.1409 3.41187 20.5886 3.41187V5.41187ZM16.1768 19.5883C15.6245 19.5883 15.1768 20.0361 15.1768 20.5883C15.1768 21.1406 15.6245 21.5883 16.1768 21.5883V19.5883ZM12.5003 12.5001L13.2075 11.793C12.8169 11.4025 12.1838 11.4025 11.7932 11.793L12.5003 12.5001ZM14.7344 16.1484C15.1249 16.5389 15.7581 16.5389 16.1486 16.1484C16.5392 15.7579 16.5392 15.1247 16.1486 14.7342L14.7344 16.1484ZM8.85206 14.7342C8.46154 15.1247 8.46154 15.7579 8.85206 16.1484C9.24259 16.5389 9.87575 16.5389 10.2663 16.1484L8.85206 14.7342ZM20.5886 4.41187V3.41187H6.25034V4.41187V5.41187H20.5886V4.41187ZM6.25034 8.08834V9.08834H19.8183V8.08834V7.08834H6.25034V8.08834ZM20.5886 8.85864H19.5886V18.5883H20.5886H21.5886V8.85864H20.5886ZM18.5886 20.5883V19.5883H16.1768V20.5883V21.5883H18.5886V20.5883ZM4.41211 6.2501H3.41211V18.5883H4.41211H5.41211V6.2501H4.41211ZM6.41211 20.5883V21.5883H10.5003V20.5883V19.5883H6.41211V20.5883ZM12.5003 18.5883H13.5003V12.5001H12.5003H11.5003V18.5883H12.5003ZM12.5003 12.5001L11.7932 13.2072L14.7344 16.1484L15.4415 15.4413L16.1486 14.7342L13.2075 11.793L12.5003 12.5001ZM12.5003 12.5001L11.7932 11.793L8.85206 14.7342L9.55917 15.4413L10.2663 16.1484L13.2075 13.2072L12.5003 12.5001ZM10.5003 20.5883V21.5883C12.1572 21.5883 13.5003 20.2452 13.5003 18.5883H12.5003H11.5003C11.5003 19.1406 11.0526 19.5883 10.5003 19.5883V20.5883ZM20.5886 18.5883H19.5886C19.5886 19.1406 19.1409 19.5883 18.5886 19.5883V20.5883V21.5883C20.2454 21.5883 21.5886 20.2452 21.5886 18.5883H20.5886ZM19.8183 8.08834V9.08834C19.6914 9.08834 19.5886 8.9855 19.5886 8.85864H20.5886H21.5886C21.5886 7.88093 20.796 7.08834 19.8183 7.08834V8.08834ZM4.41211 18.5883H3.41211C3.41211 20.2452 4.75525 21.5883 6.41211 21.5883V20.5883V19.5883C5.85983 19.5883 5.41211 19.1406 5.41211 18.5883H4.41211ZM6.25034 8.08834V7.08834C5.7874 7.08834 5.41211 6.71305 5.41211 6.2501H4.41211H3.41211C3.41211 7.81761 4.68283 9.08834 6.25034 9.08834V8.08834ZM6.25034 4.41187V3.41187C4.68283 3.41187 3.41211 4.68259 3.41211 6.2501H4.41211H5.41211C5.41211 5.78716 5.7874 5.41187 6.25034 5.41187V4.41187Z" fill="#F6F4F9"/>
</svg>
