<svg width="34" height="34" viewBox="0 0 34 34" fill="none" xmlns="http://www.w3.org/2000/svg">
<path d="M8.5 11.332H14.1667" stroke="#F6F4F9" stroke-width="1.5" stroke-linecap="round" stroke-linejoin="round"/>
<path d="M29.5134 12.75H25.8273C23.2985 12.75 21.25 14.6526 21.25 17C21.25 19.3474 23.2999 21.25 25.8258 21.25H29.5134C29.6324 21.25 29.6905 21.25 29.7401 21.2472C30.5051 21.2004 31.1142 20.6352 31.1638 19.9254C31.1667 19.8801 31.1667 19.8248 31.1667 19.7157V14.2843C31.1667 14.1752 31.1667 14.1199 31.1638 14.0746C31.1128 13.3648 30.5051 12.7996 29.7401 12.7528C29.6919 12.75 29.6324 12.75 29.5134 12.75Z" stroke="#F6F4F9" stroke-width="1.5"/>
<path d="M29.7001 12.7493C29.5896 10.0973 29.2354 8.47102 28.0893 7.32635C26.4304 5.66602 23.7586 5.66602 18.4163 5.66602H14.1663C8.82409 5.66602 6.15226 5.66602 4.49334 7.32635C2.83301 8.98527 2.83301 11.6571 2.83301 16.9993C2.83301 22.3416 2.83301 25.0134 4.49334 26.6723C6.15226 28.3327 8.82409 28.3327 14.1663 28.3327H18.4163C23.7586 28.3327 26.4304 28.3327 28.0893 26.6723C29.2354 25.5277 29.591 23.9013 29.7001 21.2493" stroke="#F6F4F9" stroke-width="1.5"/>
<path d="M25.4873 17H25.5015" stroke="#F6F4F9" stroke-width="2" stroke-linecap="round" stroke-linejoin="round"/>
</svg>
