<svg width="1263" height="172" viewBox="0 0 1263 172" fill="none" xmlns="http://www.w3.org/2000/svg">
<g opacity="0.1">
<mask id="path-1-outside-1_9_13602" maskUnits="userSpaceOnUse" x="0" y="0" width="1263" height="172" fill="black">
<rect fill="white" width="1263" height="172"/>
<path d="M68.4 170.04C31.92 170.04 1.92 147.48 1.92 109.56V61.32C1.92 23.16 32.4 1.55999 68.4 1.55999C105.12 1.55999 135.12 23.16 135.12 61.32V109.56C135.12 147.48 105.12 170.04 68.4 170.04ZM68.4 141.96C89.52 141.96 105.12 129.72 105.12 107.4V63.24C105.12 41.16 89.28 29.64 68.4 29.64C49.44 29.64 31.92 41.16 31.92 63.24V107.4C31.92 129.72 49.2 141.96 68.4 141.96ZM227.256 6.59999C264.216 6.59999 280.536 29.64 280.536 58.44C280.536 88.44 264.216 111.72 227.256 111.72H186.456V165H156.456V6.59999H227.256ZM227.256 82.68C244.056 82.68 250.536 71.4 250.536 58.44C250.536 46.92 244.056 35.64 227.256 35.64H186.456V82.68H227.256ZM324.306 135.96H402.546V165H294.306V6.59999H400.386V35.64H324.306V71.4H393.426V98.52H324.306V135.96ZM519.478 6.59999H548.518V165H528.358L452.758 65.64V165H423.718V6.59999H444.358L519.478 105.96V6.59999ZM693.499 1.55999C706.459 1.55999 722.539 3.23999 738.379 9.95999L730.939 36.12C718.459 31.08 705.019 28.44 693.019 28.44C667.579 28.44 654.139 39.48 654.139 72.36V99.24C654.139 132.12 667.579 143.16 693.019 143.16C705.019 143.16 716.779 140.52 729.019 135.48L736.459 161.64C720.619 168.36 706.459 170.04 693.499 170.04C644.059 170.04 624.139 145.08 624.139 101.4V70.2C624.139 26.52 644.059 1.55999 693.499 1.55999ZM858.956 165L847.916 135H784.316L773.036 165H743.276L806.396 6.59999H830.636L887.996 165H858.956ZM817.916 47.88L795.356 105.96H837.596L817.916 47.88ZM953.113 1.55999C968.953 1.55999 988.393 4.43999 1001.59 9.72L994.393 37.32C982.873 32.28 966.553 29.4 954.793 29.4C935.593 29.4 926.713 36.12 926.713 47.88C926.713 58.44 934.393 61.32 962.233 72.12C993.913 84.36 1008.79 96.36 1008.79 121.8C1008.79 153.72 985.513 170.04 949.753 170.04C932.713 170.04 914.233 166.44 895.273 159.48L901.993 132.12C919.273 138.12 934.393 141 948.553 141C963.433 141 978.793 138.36 978.793 123.72C978.793 109.8 963.913 104.52 943.993 97.56C915.913 86.76 896.473 75.96 896.473 46.92C896.473 18.6 914.473 1.55999 953.113 1.55999ZM1055.31 135.96H1133.55V165H1025.31V6.59999H1131.39V35.64H1055.31V71.4H1124.43V98.52H1055.31V135.96ZM1205.84 1.55999C1221.68 1.55999 1241.12 4.43999 1254.32 9.72L1247.12 37.32C1235.6 32.28 1219.28 29.4 1207.52 29.4C1188.32 29.4 1179.44 36.12 1179.44 47.88C1179.44 58.44 1187.12 61.32 1214.96 72.12C1246.64 84.36 1261.52 96.36 1261.52 121.8C1261.52 153.72 1238.24 170.04 1202.48 170.04C1185.44 170.04 1166.96 166.44 1148 159.48L1154.72 132.12C1172 138.12 1187.12 141 1201.28 141C1216.16 141 1231.52 138.36 1231.52 123.72C1231.52 109.8 1216.64 104.52 1196.72 97.56C1168.64 86.76 1149.2 75.96 1149.2 46.92C1149.2 18.6 1167.2 1.55999 1205.84 1.55999Z"/>
</mask>
<path d="M68.4 170.04V169.04C50.3599 169.04 33.983 163.462 22.1323 153.262C10.2972 143.076 2.92 128.234 2.92 109.56H1.92H0.92C0.92 128.806 8.5428 144.204 20.8277 154.778C33.097 165.338 49.9601 171.04 68.4 171.04V170.04ZM1.92 109.56H2.92V61.32H1.92H0.92V109.56H1.92ZM1.92 61.32H2.92C2.92 42.5312 10.4125 27.8732 22.3028 17.896C34.212 7.90292 50.5916 2.55999 68.4 2.55999V1.55999V0.55999C50.2084 0.55999 33.348 6.01705 21.0172 16.364C8.66745 26.7267 0.92 41.9488 0.92 61.32H1.92ZM68.4 1.55999V2.55999C86.5721 2.55999 103.01 7.90495 114.886 17.8952C126.744 27.8695 134.12 42.5261 134.12 61.32H135.12H136.12C136.12 41.9539 128.496 26.7305 116.174 16.3647C103.87 6.01504 86.9479 0.55999 68.4 0.55999V1.55999ZM135.12 61.32H134.12V109.56H135.12H136.12V61.32H135.12ZM135.12 109.56H134.12C134.12 128.234 126.743 143.075 114.879 153.261C102.998 163.461 86.5615 169.04 68.4 169.04V170.04V171.04C86.9585 171.04 103.882 165.339 116.181 154.779C128.497 144.205 136.12 128.806 136.12 109.56H135.12ZM68.4 141.96V142.96C79.147 142.96 88.5837 139.845 95.3467 133.795C102.125 127.732 106.12 118.808 106.12 107.4H105.12H104.12C104.12 118.312 100.315 126.668 94.0133 132.305C87.6963 137.955 78.773 140.96 68.4 140.96V141.96ZM105.12 107.4H106.12V63.24H105.12H104.12V107.4H105.12ZM105.12 63.24H106.12C106.12 51.9418 102.057 43.252 95.2414 37.4012C88.4465 31.5682 79.0145 28.64 68.4 28.64V29.64V30.64C78.6655 30.64 87.5936 33.4718 93.9386 38.9188C100.263 44.348 104.12 52.4582 104.12 63.24H105.12ZM68.4 29.64V28.64C58.7278 28.64 49.3686 31.5773 42.4088 37.3926C35.4274 43.226 30.92 51.9089 30.92 63.24H31.92H32.92C32.92 52.4911 37.1726 44.374 43.6912 38.9274C50.2314 33.4627 59.1122 30.64 68.4 30.64V29.64ZM31.92 63.24H30.92V107.4H31.92H32.92V63.24H31.92ZM31.92 107.4H30.92C30.92 118.84 35.3585 127.758 42.3034 133.804C49.2311 139.835 58.595 142.96 68.4 142.96V141.96V140.96C59.005 140.96 50.1289 137.965 43.6166 132.296C37.1215 126.642 32.92 118.28 32.92 107.4H31.92ZM186.456 111.72V110.72H185.456V111.72H186.456ZM186.456 165V166H187.456V165H186.456ZM156.456 165H155.456V166H156.456V165ZM156.456 6.59999V5.59999H155.456V6.59999H156.456ZM186.456 35.64V34.64H185.456V35.64H186.456ZM186.456 82.68H185.456V83.68H186.456V82.68ZM227.256 6.59999V7.59999C245.52 7.59999 258.551 13.2859 267.023 22.4008C275.508 31.5292 279.536 44.2208 279.536 58.44H280.536H281.536C281.536 43.8592 277.403 30.6308 268.488 21.0392C259.56 11.4341 245.951 5.59999 227.256 5.59999V6.59999ZM280.536 58.44H279.536C279.536 73.2687 275.503 86.3216 267.016 95.6573C258.544 104.977 245.517 110.72 227.256 110.72V111.72V112.72C245.955 112.72 259.568 106.823 268.496 97.0027C277.409 87.1984 281.536 73.6113 281.536 58.44H280.536ZM227.256 111.72V110.72H186.456V111.72V112.72H227.256V111.72ZM186.456 111.72H185.456V165H186.456H187.456V111.72H186.456ZM186.456 165V164H156.456V165V166H186.456V165ZM156.456 165H157.456V6.59999H156.456H155.456V165H156.456ZM156.456 6.59999V7.59999H227.256V6.59999V5.59999H156.456V6.59999ZM227.256 82.68V83.68C235.897 83.68 242.02 80.7675 245.962 76.0622C249.88 71.3866 251.536 65.0704 251.536 58.44H250.536H249.536C249.536 64.7696 247.952 70.5733 244.429 74.7778C240.931 78.9525 235.414 81.68 227.256 81.68V82.68ZM250.536 58.44H251.536C251.536 52.5056 249.867 46.5496 245.949 42.0622C242.01 37.551 235.896 34.64 227.256 34.64V35.64V36.64C235.415 36.64 240.942 39.3689 244.442 43.3777C247.964 47.4104 249.536 52.8544 249.536 58.44H250.536ZM227.256 35.64V34.64H186.456V35.64V36.64H227.256V35.64ZM186.456 35.64H185.456V82.68H186.456H187.456V35.64H186.456ZM186.456 82.68V83.68H227.256V82.68V81.68H186.456V82.68ZM324.306 135.96H323.306V136.96H324.306V135.96ZM402.546 135.96H403.546V134.96H402.546V135.96ZM402.546 165V166H403.546V165H402.546ZM294.306 165H293.306V166H294.306V165ZM294.306 6.59999V5.59999H293.306V6.59999H294.306ZM400.386 6.59999H401.386V5.59999H400.386V6.59999ZM400.386 35.64V36.64H401.386V35.64H400.386ZM324.306 35.64V34.64H323.306V35.64H324.306ZM324.306 71.4H323.306V72.4H324.306V71.4ZM393.426 71.4H394.426V70.4H393.426V71.4ZM393.426 98.52V99.52H394.426V98.52H393.426ZM324.306 98.52V97.52H323.306V98.52H324.306ZM324.306 135.96V136.96H402.546V135.96V134.96H324.306V135.96ZM402.546 135.96H401.546V165H402.546H403.546V135.96H402.546ZM402.546 165V164H294.306V165V166H402.546V165ZM294.306 165H295.306V6.59999H294.306H293.306V165H294.306ZM294.306 6.59999V7.59999H400.386V6.59999V5.59999H294.306V6.59999ZM400.386 6.59999H399.386V35.64H400.386H401.386V6.59999H400.386ZM400.386 35.64V34.64H324.306V35.64V36.64H400.386V35.64ZM324.306 35.64H323.306V71.4H324.306H325.306V35.64H324.306ZM324.306 71.4V72.4H393.426V71.4V70.4H324.306V71.4ZM393.426 71.4H392.426V98.52H393.426H394.426V71.4H393.426ZM393.426 98.52V97.52H324.306V98.52V99.52H393.426V98.52ZM324.306 98.52H323.306V135.96H324.306H325.306V98.52H324.306ZM519.478 6.59999V5.59999H518.478V6.59999H519.478ZM548.518 6.59999H549.518V5.59999H548.518V6.59999ZM548.518 165V166H549.518V165H548.518ZM528.358 165L527.562 165.606L527.862 166H528.358V165ZM452.758 65.64L453.554 65.0345L451.758 62.6742V65.64H452.758ZM452.758 165V166H453.758V165H452.758ZM423.718 165H422.718V166H423.718V165ZM423.718 6.59999V5.59999H422.718V6.59999H423.718ZM444.358 6.59999L445.156 5.99692L444.856 5.59999H444.358V6.59999ZM519.478 105.96L518.68 106.563L520.478 108.941V105.96H519.478ZM519.478 6.59999V7.59999H548.518V6.59999V5.59999H519.478V6.59999ZM548.518 6.59999H547.518V165H548.518H549.518V6.59999H548.518ZM548.518 165V164H528.358V165V166H548.518V165ZM528.358 165L529.154 164.394L453.554 65.0345L452.758 65.64L451.962 66.2455L527.562 165.606L528.358 165ZM452.758 65.64H451.758V165H452.758H453.758V65.64H452.758ZM452.758 165V164H423.718V165V166H452.758V165ZM423.718 165H424.718V6.59999H423.718H422.718V165H423.718ZM423.718 6.59999V7.59999H444.358V6.59999V5.59999H423.718V6.59999ZM444.358 6.59999L443.56 7.20307L518.68 106.563L519.478 105.96L520.276 105.357L445.156 5.99692L444.358 6.59999ZM519.478 105.96H520.478V6.59999H519.478H518.478V105.96H519.478ZM738.379 9.95999L739.341 10.2336L739.582 9.38425L738.769 9.03941L738.379 9.95999ZM730.939 36.12L730.564 37.0472L731.596 37.464L731.901 36.3936L730.939 36.12ZM729.019 135.48L729.981 135.206L729.674 134.129L728.638 134.555L729.019 135.48ZM736.459 161.64L736.849 162.561L737.662 162.216L737.421 161.366L736.459 161.64ZM693.499 1.55999V2.55999C706.379 2.55999 722.314 4.23074 737.988 10.8806L738.379 9.95999L738.769 9.03941C722.764 2.24924 706.538 0.55999 693.499 0.55999V1.55999ZM738.379 9.95999L737.417 9.68644L729.977 35.8465L730.939 36.12L731.901 36.3936L739.341 10.2336L738.379 9.95999ZM730.939 36.12L731.313 35.1928C718.722 30.108 705.156 27.44 693.019 27.44V28.44V29.44C704.882 29.44 718.195 32.052 730.564 37.0472L730.939 36.12ZM693.019 28.44V27.44C680.178 27.44 670.128 30.2235 663.314 37.3805C656.514 44.5237 653.139 55.8165 653.139 72.36H654.139H655.139C655.139 56.0235 658.483 45.3563 664.763 38.7595C671.03 32.1765 680.419 29.44 693.019 29.44V28.44ZM654.139 72.36H653.139V99.24H654.139H655.139V72.36H654.139ZM654.139 99.24H653.139C653.139 115.783 656.514 127.076 663.314 134.219C670.128 141.377 680.178 144.16 693.019 144.16V143.16V142.16C680.419 142.16 671.03 139.423 664.763 132.84C658.483 126.244 655.139 115.577 655.139 99.24H654.139ZM693.019 143.16V144.16C705.172 144.16 717.062 141.485 729.4 136.405L729.019 135.48L728.638 134.555C716.496 139.555 704.865 142.16 693.019 142.16V143.16ZM729.019 135.48L728.057 135.754L735.497 161.914L736.459 161.64L737.421 161.366L729.981 135.206L729.019 135.48ZM736.459 161.64L736.068 160.719C720.382 167.374 706.362 169.04 693.499 169.04V170.04V171.04C706.555 171.04 720.855 169.346 736.849 162.561L736.459 161.64ZM693.499 170.04V169.04C668.935 169.04 651.906 162.841 641.002 151.41C630.09 139.97 625.139 123.108 625.139 101.4H624.139H623.139C623.139 123.372 628.147 140.83 639.555 152.79C650.972 164.759 668.622 171.04 693.499 171.04V170.04ZM624.139 101.4H625.139V70.2H624.139H623.139V101.4H624.139ZM624.139 70.2H625.139C625.139 48.4922 630.09 31.6301 641.002 20.1902C651.906 8.75924 668.935 2.55999 693.499 2.55999V1.55999V0.55999C668.622 0.55999 650.972 6.84074 639.555 18.8098C628.147 30.7698 623.139 48.2278 623.139 70.2H624.139ZM858.956 165L858.018 165.345L858.259 166H858.956V165ZM847.916 135L848.855 134.655L848.614 134H847.916V135ZM784.316 135V134H783.624L783.38 134.648L784.316 135ZM773.036 165V166H773.729L773.972 165.352L773.036 165ZM743.276 165L742.347 164.63L741.801 166H743.276V165ZM806.396 6.59999V5.59999H805.718L805.467 6.22982L806.396 6.59999ZM830.636 6.59999L831.576 6.25951L831.338 5.59999H830.636V6.59999ZM887.996 165V166H889.422L888.936 164.66L887.996 165ZM817.916 47.88L818.863 47.5591L817.98 44.9531L816.984 47.5179L817.916 47.88ZM795.356 105.96L794.424 105.598L793.895 106.96H795.356V105.96ZM837.596 105.96V106.96H838.991L838.543 105.639L837.596 105.96ZM858.956 165L859.895 164.655L848.855 134.655L847.916 135L846.978 135.345L858.018 165.345L858.956 165ZM847.916 135V134H784.316V135V136H847.916V135ZM784.316 135L783.38 134.648L772.1 164.648L773.036 165L773.972 165.352L785.252 135.352L784.316 135ZM773.036 165V164H743.276V165V166H773.036V165ZM743.276 165L744.205 165.37L807.325 6.97017L806.396 6.59999L805.467 6.22982L742.347 164.63L743.276 165ZM806.396 6.59999V7.59999H830.636V6.59999V5.59999H806.396V6.59999ZM830.636 6.59999L829.696 6.94048L887.056 165.34L887.996 165L888.936 164.66L831.576 6.25951L830.636 6.59999ZM887.996 165V164H858.956V165V166H887.996V165ZM817.916 47.88L816.984 47.5179L794.424 105.598L795.356 105.96L796.288 106.322L818.848 48.2421L817.916 47.88ZM795.356 105.96V106.96H837.596V105.96V104.96H795.356V105.96ZM837.596 105.96L838.543 105.639L818.863 47.5591L817.916 47.88L816.969 48.2009L836.649 106.281L837.596 105.96ZM1001.59 9.71999L1002.56 9.97242L1002.78 9.11906L1001.96 8.79152L1001.59 9.71999ZM994.393 37.32L993.992 38.2362L995.065 38.7055L995.361 37.5724L994.393 37.32ZM962.233 72.12L961.871 73.0523L961.873 73.0528L962.233 72.12ZM895.273 159.48L894.302 159.241L894.089 160.11L894.929 160.419L895.273 159.48ZM901.993 132.12L902.321 131.175L901.284 130.815L901.022 131.881L901.993 132.12ZM943.993 97.56L943.634 98.4933L943.649 98.4989L943.663 98.504L943.993 97.56ZM953.113 1.55999V2.55999C968.868 2.55999 988.174 5.42929 1001.22 10.6485L1001.59 9.71999L1001.96 8.79152C988.612 3.4507 969.038 0.55999 953.113 0.55999V1.55999ZM1001.59 9.71999L1000.63 9.46758L993.426 37.0676L994.393 37.32L995.361 37.5724L1002.56 9.97242L1001.59 9.71999ZM994.393 37.32L994.794 36.4038C983.129 31.3004 966.669 28.4 954.793 28.4V29.4V30.4C966.437 30.4 982.617 33.2596 993.992 38.2362L994.393 37.32ZM954.793 29.4V28.4C945.106 28.4 937.85 30.0901 932.99 33.4038C928.065 36.7615 925.713 41.7092 925.713 47.88H926.713H927.713C927.713 42.2908 929.801 37.9986 934.116 35.0562C938.496 32.0699 945.281 30.4 954.793 30.4V29.4ZM926.713 47.88H925.713C925.713 50.6473 926.218 52.9987 927.491 55.1185C928.756 57.2257 930.727 59.015 933.501 60.7569C939.004 64.2116 948.004 67.6726 961.871 73.0523L962.233 72.12L962.595 71.1877C948.622 65.7674 939.862 62.3884 934.565 59.063C931.94 57.415 930.25 55.8293 929.206 54.089C928.168 52.3613 927.713 50.3927 927.713 47.88H926.713ZM962.233 72.12L961.873 73.0528C977.689 79.1635 989.161 85.1625 996.685 92.7157C1004.16 100.215 1007.79 109.31 1007.79 121.8H1008.79H1009.79C1009.79 108.85 1005.99 99.2247 998.102 91.3043C990.266 83.4375 978.458 77.3165 962.594 71.1872L962.233 72.12ZM1008.79 121.8H1007.79C1007.79 137.492 1002.09 149.245 992.066 157.103C982.011 164.989 967.499 169.04 949.753 169.04V170.04V171.04C967.768 171.04 982.775 166.931 993.3 158.677C1003.86 150.395 1009.79 138.028 1009.79 121.8H1008.79ZM949.753 170.04V169.04C932.851 169.04 914.488 165.468 895.618 158.541L895.273 159.48L894.929 160.419C913.978 167.412 932.575 171.04 949.753 171.04V170.04ZM895.273 159.48L896.244 159.719L902.964 132.359L901.993 132.12L901.022 131.881L894.302 159.241L895.273 159.48ZM901.993 132.12L901.665 133.065C919.022 139.091 934.255 142 948.553 142V141V140C934.532 140 919.525 137.149 902.321 131.175L901.993 132.12ZM948.553 141V142C956.016 142 963.753 141.344 969.653 138.766C972.62 137.471 975.167 135.67 976.97 133.183C978.781 130.687 979.793 127.565 979.793 123.72H978.793H977.793C977.793 127.195 976.885 129.893 975.351 132.009C973.81 134.135 971.587 135.739 968.853 136.934C963.353 139.336 955.97 140 948.553 140V141ZM978.793 123.72H979.793C979.793 116.299 975.781 111.224 969.398 107.185C963.07 103.18 954.245 100.083 944.323 96.616L943.993 97.56L943.663 98.504C953.661 101.997 962.236 105.02 968.328 108.875C974.365 112.696 977.793 117.221 977.793 123.72H978.793ZM943.993 97.56L944.352 96.6266C930.311 91.2263 918.595 85.8818 910.379 78.3432C902.225 70.8609 897.473 61.1724 897.473 46.92H896.473H895.473C895.473 61.7076 900.442 71.9391 909.027 79.8168C917.551 87.6382 929.595 93.0937 943.634 98.4933L943.993 97.56ZM896.473 46.92H897.473C897.473 32.9826 901.893 21.9546 910.945 14.3872C920.027 6.79447 933.92 2.55999 953.113 2.55999V1.55999V0.55999C933.666 0.55999 919.24 4.8455 909.662 12.8528C900.053 20.8854 895.473 32.5374 895.473 46.92H896.473ZM1055.31 135.96H1054.31V136.96H1055.31V135.96ZM1133.55 135.96H1134.55V134.96H1133.55V135.96ZM1133.55 165V166H1134.55V165H1133.55ZM1025.31 165H1024.31V166H1025.31V165ZM1025.31 6.59999V5.59999H1024.31V6.59999H1025.31ZM1131.39 6.59999H1132.39V5.59999H1131.39V6.59999ZM1131.39 35.64V36.64H1132.39V35.64H1131.39ZM1055.31 35.64V34.64H1054.31V35.64H1055.31ZM1055.31 71.4H1054.31V72.4H1055.31V71.4ZM1124.43 71.4H1125.43V70.4H1124.43V71.4ZM1124.43 98.52V99.52H1125.43V98.52H1124.43ZM1055.31 98.52V97.52H1054.31V98.52H1055.31ZM1055.31 135.96V136.96H1133.55V135.96V134.96H1055.31V135.96ZM1133.55 135.96H1132.55V165H1133.55H1134.55V135.96H1133.55ZM1133.55 165V164H1025.31V165V166H1133.55V165ZM1025.31 165H1026.31V6.59999H1025.31H1024.31V165H1025.31ZM1025.31 6.59999V7.59999H1131.39V6.59999V5.59999H1025.31V6.59999ZM1131.39 6.59999H1130.39V35.64H1131.39H1132.39V6.59999H1131.39ZM1131.39 35.64V34.64H1055.31V35.64V36.64H1131.39V35.64ZM1055.31 35.64H1054.31V71.4H1055.31H1056.31V35.64H1055.31ZM1055.31 71.4V72.4H1124.43V71.4V70.4H1055.31V71.4ZM1124.43 71.4H1123.43V98.52H1124.43H1125.43V71.4H1124.43ZM1124.43 98.52V97.52H1055.31V98.52V99.52H1124.43V98.52ZM1055.31 98.52H1054.31V135.96H1055.31H1056.31V98.52H1055.31ZM1254.32 9.71999L1255.29 9.97242L1255.51 9.11906L1254.7 8.79152L1254.32 9.71999ZM1247.12 37.32L1246.72 38.2362L1247.8 38.7055L1248.09 37.5724L1247.12 37.32ZM1214.96 72.12L1214.6 73.0523L1214.6 73.0528L1214.96 72.12ZM1148 159.48L1147.03 159.241L1146.82 160.11L1147.66 160.419L1148 159.48ZM1154.72 132.12L1155.05 131.175L1154.02 130.815L1153.75 131.881L1154.72 132.12ZM1196.72 97.56L1196.37 98.4933L1196.38 98.4989L1196.39 98.504L1196.72 97.56ZM1205.84 1.55999V2.55999C1221.6 2.55999 1240.91 5.42929 1253.95 10.6485L1254.32 9.71999L1254.7 8.79152C1241.34 3.4507 1221.77 0.55999 1205.84 0.55999V1.55999ZM1254.32 9.71999L1253.36 9.46758L1246.16 37.0676L1247.12 37.32L1248.09 37.5724L1255.29 9.97242L1254.32 9.71999ZM1247.12 37.32L1247.53 36.4038C1235.86 31.3004 1219.4 28.4 1207.52 28.4V29.4V30.4C1219.17 30.4 1235.35 33.2596 1246.72 38.2362L1247.12 37.32ZM1207.52 29.4V28.4C1197.84 28.4 1190.58 30.0901 1185.72 33.4038C1180.8 36.7615 1178.44 41.7092 1178.44 47.88H1179.44H1180.44C1180.44 42.2908 1182.53 37.9986 1186.85 35.0562C1191.23 32.0699 1198.01 30.4 1207.52 30.4V29.4ZM1179.44 47.88H1178.44C1178.44 50.6473 1178.95 52.9987 1180.22 55.1185C1181.49 57.2257 1183.46 59.015 1186.23 60.7569C1191.74 64.2116 1200.74 67.6726 1214.6 73.0523L1214.96 72.12L1215.33 71.1877C1201.35 65.7674 1192.59 62.3884 1187.3 59.063C1184.67 57.415 1182.98 55.8293 1181.94 54.089C1180.9 52.3613 1180.44 50.3927 1180.44 47.88H1179.44ZM1214.96 72.12L1214.6 73.0528C1230.42 79.1635 1241.89 85.1625 1249.42 92.7157C1256.89 100.215 1260.52 109.31 1260.52 121.8H1261.52H1262.52C1262.52 108.85 1258.72 99.2247 1250.83 91.3043C1243 83.4375 1231.19 77.3165 1215.32 71.1872L1214.96 72.12ZM1261.52 121.8H1260.52C1260.52 137.492 1254.82 149.245 1244.8 157.103C1234.74 164.989 1220.23 169.04 1202.48 169.04V170.04V171.04C1220.5 171.04 1235.51 166.931 1246.03 158.677C1256.59 150.395 1262.52 138.028 1262.52 121.8H1261.52ZM1202.48 170.04V169.04C1185.58 169.04 1167.22 165.468 1148.35 158.541L1148 159.48L1147.66 160.419C1166.71 167.412 1185.31 171.04 1202.48 171.04V170.04ZM1148 159.48L1148.98 159.719L1155.7 132.359L1154.72 132.12L1153.75 131.881L1147.03 159.241L1148 159.48ZM1154.72 132.12L1154.4 133.065C1171.75 139.091 1186.99 142 1201.28 142V141V140C1187.26 140 1172.26 137.149 1155.05 131.175L1154.72 132.12ZM1201.28 141V142C1208.75 142 1216.48 141.344 1222.38 138.766C1225.35 137.471 1227.9 135.67 1229.7 133.183C1231.51 130.687 1232.52 127.565 1232.52 123.72H1231.52H1230.52C1230.52 127.195 1229.62 129.893 1228.08 132.009C1226.54 134.135 1224.32 135.739 1221.58 136.934C1216.08 139.336 1208.7 140 1201.28 140V141ZM1231.52 123.72H1232.52C1232.52 116.299 1228.51 111.224 1222.13 107.185C1215.8 103.18 1206.98 100.083 1197.05 96.616L1196.72 97.56L1196.39 98.504C1206.39 101.997 1214.97 105.02 1221.06 108.875C1227.1 112.696 1230.52 117.221 1230.52 123.72H1231.52ZM1196.72 97.56L1197.08 96.6266C1183.04 91.2263 1171.33 85.8818 1163.11 78.3432C1154.96 70.8609 1150.2 61.1724 1150.2 46.92H1149.2H1148.2C1148.2 61.7076 1153.17 71.9391 1161.76 79.8168C1170.28 87.6382 1182.33 93.0937 1196.37 98.4933L1196.72 97.56ZM1149.2 46.92H1150.2C1150.2 32.9826 1154.62 21.9546 1163.68 14.3872C1172.76 6.79447 1186.65 2.55999 1205.84 2.55999V1.55999V0.55999C1186.4 0.55999 1171.97 4.8455 1162.39 12.8528C1152.78 20.8854 1148.2 32.5374 1148.2 46.92H1149.2Z" fill="white" mask="url(#path-1-outside-1_9_13602)"/>
</g>
</svg>
