<svg width="181" height="49" viewBox="0 0 181 49" fill="none" xmlns="http://www.w3.org/2000/svg">
<path d="M181 34.4053L166.405 49H0V14.8115L14.8115 0H181V34.4053Z" fill="#5339F8"/>
<path d="M33.906 31L31.278 28.372V21.028L33.906 18.4H41.574L44.202 21.028V28.372L41.574 31H33.906ZM35.418 28.39H40.062L41.142 27.31V22.09L40.062 21.01H35.418L34.338 22.09V27.31L35.418 28.39ZM47.1243 31V18.4H56.5023L58.8423 20.74V25.15L56.5023 27.49H50.1843V31H47.1243ZM50.1843 24.88H54.9363L55.7823 24.052V21.838L54.9363 21.01H50.1843V24.88ZM61.3626 31V18.4H72.4506V21.01H64.4226V23.44H70.4706V25.852H64.4226V28.39H72.6306V31H61.3626ZM74.9857 31V18.4H79.6657L84.4717 27.724H84.7777V18.4H87.6937V31H83.0137L78.2077 21.676H77.9017V31H74.9857ZM99.3494 31L96.7214 28.372V21.028L99.3494 18.4H107.755V21.01H100.861L99.7814 22.09V27.31L100.861 28.39H107.755V31H99.3494ZM118.133 18.4L123.083 30.1V31H120.113L119.105 28.444H112.787L111.761 31H108.881V30.1L113.849 18.4H118.133ZM113.831 25.834H118.061L116.171 21.064H115.757L113.831 25.834ZM124.318 31V28.39H132.184L132.778 27.796V26.59L132.148 25.96H126.316L124.084 23.728V20.542L126.226 18.4H135.208V21.01H127.738L127.144 21.604V22.738L127.774 23.35H133.606L135.838 25.582V28.858L133.696 31H124.318ZM138.214 31V18.4H149.302V21.01H141.274V23.44H147.322V25.852H141.274V28.39H149.482V31H138.214Z" fill="white"/>
</svg>
